<svg id="Layer_1" data-name="Layer 1" xmlns="http://www.w3.org/2000/svg" viewBox="0 0 559.55 449.99"><defs><style>.cls-1{fill:#fff;}.cls-2{font-size:121.54px;font-family:PlayfairDisplay-Bold, Playfair Display;font-weight:700;}.cls-3{letter-spacing:-0.01em;}</style></defs><title>logoBig</title><path d="M344,291.39c-.11-1.4-.23-2.79-.31-4.19,0-.78,0-1.57,0-2.83-1-1.22-1-2.08.22-4.05l-1.68-5.76,2-1.11.76,2.06-1.51.62c1.94.58,1.53,2.07,1.71,3.29a19,19,0,0,0,.51,2,8.38,8.38,0,0,0,1.74-.7q4.77-3.27,9.47-6.64a14.82,14.82,0,0,0,1.77-1.94,12.19,12.19,0,0,1-3-.28,3.19,3.19,0,0,1-1.61-1.45c-1.38-2.88-2.65-5.81-3.91-8.75-.8-1.86-2.24-2.15-3.59-.74s-2.72,2.64-4.08,4a.18.18,0,0,0,0,.16c0,.05.09.08.13.12h0a7.45,7.45,0,0,1-.57-.79c-.15-.28-.28-.87-.35-.86a11.35,11.35,0,0,0-3.47.71c-.43.21-.53,1.47-.48,2.23.19,2.82.44,5.64.81,8.44.63,4.87,1.42,9.72,2,14.59.27,2.17.24,4.37.4,6.55.1,1.45.3,2.89.45,4.33,0,.12.08.26,0,.36-1.35,3.76.23,7.71-.68,11.44-.38,1.56.1,2.82.11,4.22s-.5,3.07-.63,4.62c-.21,2.57-.24,5.16-.46,7.73-.13,1.46-.55,2.9-.74,4.36s-.18,3-.45,4.49a14.47,14.47,0,0,1-1.16,2.75l.69.31-.67.21c-.06,1-.12,2-.18,2.93s-.06,1.95-.2,2.9c-.74,5.13-1.84,10.23-2.18,15.39a44.69,44.69,0,0,1-2.49,11.11c-1,3.14-1.79,6.37-2.79,9.52-.51,1.62-1.39,3.13-1.9,4.76a20.26,20.26,0,0,0-.44,3.38c-.09.7-.2,1.41-.36,2.1-.45,1.92-.86,3.87-1.43,5.75-.72,2.37-1.64,4.67-2.38,7-.4,1.28-.51,2.64-.88,3.93-.44,1.54-.67,3.33-1.63,4.48-1.11,1.32-.89,2.76-1.32,4.12a97.14,97.14,0,0,1-3.3,9.36c-1-2.6-4.72-2.28-5-5.31,0-.26-.5-.61-.81-.68-2-.42-3.14-1.86-4.2-3.45-1.89-2.85-3.85-5.65-5.76-8.49-1-1.42-1.85-2.87-2.76-4.31-.1-.15-.15-.36-.28-.46-2.63-2.09-3.93-5-5.27-8-.3-.65-1.34-1-1.54-1.65-1-3.05-3.75-4.83-5.14-7.55a9.7,9.7,0,0,1-.55-2.05,9.66,9.66,0,0,1-1.26-1.19c-.44-.57-.72-1.26-1.11-1.86-1.29-2-2.6-3.94-3.89-5.92-.81-1.24-1.63-2.47-2.34-3.76a2.69,2.69,0,0,1-.09-1.54c-.58-1.57-2.88-2.15-2.56-4.43-1.47-1.27-3.07-2.45-3.09-4.83,0-.66-1.16-1.25-1.58-2a8.44,8.44,0,0,1-.56-2.13l.63-.23c1.34,2.1,2.66,4.21,4,6.29,1.19,1.82,2.53,3.54,3.64,5.41,1.54,2.61,2.86,5.36,4.4,8,1.15,1.94,2.53,3.75,3.78,5.63,2.6,3.91,5.25,7.79,7.77,11.75s5,8.19,7.55,12.24c1,1.53,2.22,2.88,3.22,4.4,3.27,5,7.52,9,11.92,13.4,1.19-3.22,2.37-6.16,3.36-9.17,1.37-4.14,2.64-8.31,3.86-12.49.43-1.47.46-3.07.92-4.52.56-1.73,1.54-3.34,2.06-5.08s.71-3.76,1.14-5.62,1.07-3.93,1.52-5.91c.35-1.49.4-3.07.86-4.52.68-2.11,1.76-4.1,2.41-6.22a52.44,52.44,0,0,0,1.79-7.54c.63-4.21.91-8.47,1.53-12.68.86-5.83,1.91-11.64,2.87-17.46.41-2.52.92-5,1.16-7.56s.15-5.36.35-8c.25-3.41.71-6.81,1-10.23.08-1.11-.35-2.25-.38-3.38-.1-5,.05-10-.27-15-.22-3.5-1.16-6.94-1.59-10.43-.39-3.16-.51-6.35-.78-9.53-.12-1.43-.33-2.85-.49-4.28-.1-1-.7-1.38-1.46-2-1.19-1-3.17-1.72-2.6-4.16.2-.87-1.12-2.22,1-2a1.64,1.64,0,0,1,1.16.93c.79,3,3.65,2.86,5.78,3.76.42.18,1.18-.45,1.84-.74a2.75,2.75,0,0,0-2.08-2.58c-2.81-.89-3-1.55-2.22-4.31a13.63,13.63,0,0,1,2.76-5.22c.59-.7-.08-2.43-.12-3.7-.06-1.73-1.51-3.59.37-5l-1.56-4,2.56-.55-1.68-1.18c1.31-1.67,1.6.58,2.69.47-.36.54-.72.83-.71,1.1a11,11,0,0,0,.38,1.84c.51-.16,1.18-.16,1.49-.5,1.44-1.57,2.78-3.24,4.33-5.07l1.35,1.89c-3,2.78-4,4.26-3.75,6.2,3.79-1.78,6.59.93,10.29,2.64l-1.65.67.36,2.24-.4.15-1.07-1.43-1.94,2.76c2.16.33,3.91.45,5.58.89,1.45.38,2.57,1.16,1.83,3.1a8.82,8.82,0,0,0,0,2.85l.62-.51c.69,1.86.69,1.86-2.15,3.39l-.53-6c-1.81,0-3.22-.1-3.71,1.66-.44,1.57-1.64,3.1-.53,4.8.87,1.32,2.11,1.49,3.55.73-.61,1.31-1.64.95-2.63.79a5.82,5.82,0,0,0-.94,0,2.74,2.74,0,0,0,.1,1c.54,1,1.2,2,1.72,3,1.45,2.88,2.86,5.79,4.29,8.69,4.33-2.28,9.35-11.41,10.82-19.61l-3,.37-.68-3.45.39-.41a16.49,16.49,0,0,1,1.88,1.4c1.07,1.05,2,1,2.53-.36a33.49,33.49,0,0,0,1.6-4.65c.09-.35-.54-1.16-1-1.32a4.86,4.86,0,0,0-2.74-.08l-2.74,1,2.68-2.89a46.23,46.23,0,0,1-4.87-3.09c-1.75-1.43-2.06-3.56-2-5.72a7.55,7.55,0,0,1,.14-1.42c.27-1.29.94-2.63.77-3.85s-1.19-2.25-1.57-3.51l2.83,2.51,3.57-3.67c-2.58-.82-3.51-2.37-3-4.8.41-2,1-3.87,1.64-5.79.79-2.54,3.42-2.86,5.51-2.53.83.13,1.62.72,2.43.73,2.08,0,4.16-.16,6.38-.27.77.56,1.81,1.27,2.8,2.06a1.29,1.29,0,0,1,.42,1,3.22,3.22,0,0,0,.76,2.6c.51.63.11,2,.06,3.09s-.15,1.81-.24,2.91c1.51-.72,1.72-.08,1.56,1.13-.2,1.56-.28,3.13-.41,4.77l-1.09-.15-.1.31,1.46.8,0,.55c-.86,0-1.73.11-2.59.08-2.44-.09-2.31-.16-1.48,2.1a7.51,7.51,0,0,1-.46,6.15,1.74,1.74,0,0,0,1,2.74c1.79.7,1.87,2.46,2.22,3.81s-.16,2.86-.33,4.68l4.79-.3.26.52,6.83.66-2.14,3.06.05,0c-1.53.2-2.24-.36-1.89-1.54-1.78-.41-3.54-.67-5.21-1.23-2.29-.77-4.27-.67-5.94,1.28-1.24,1.45-2.54,2.84-4.05,4.52,3.06,1.27,5.72.19,8.56.63-3.13,1.43-6.9-.16-9.67,2.45l1.26.62-.32.38a1.38,1.38,0,0,1-.48.08c-1.55-.32-3-1.52-4.67-.8a1,1,0,0,0,.18,2c2.71.29,5.43.58,8.15.67,3.09.11,5.81-1.23,8.34-2.77,1.05-.64,1.71-1.92,2.67-3.06l1.81,1.6-.12.29-1.35-.28-.73.82,2,.76c-.43.31-.72.65-.84.6-1.39-.63-2.45,0-3.49.82-2,1.58-4.55,1.36-6.83,1.76-2.45.43-5.06,0-7.59-.06-1.09,0-2.19-.13-3.28-.1-.11,0-.2.65-.37,1.25l-1.73-.27-1.87,3.39h-.18c-.28.59-.54,1.19-.83,1.77a6.1,6.1,0,0,1-.89,1.59c-5.34,5.4-10.94,10.45-17.9,13.75-1.73.82-1.78,1.27-.95,2.79-.45,1.13-2.61,1.93-.7,3.58a11.41,11.41,0,0,1-.89,1.36Zm38.37-63.44a37.46,37.46,0,0,1,.61-5c.31-1.21-.14-1.73-1.12-1.77a27.76,27.76,0,0,0-4.16.27,14.21,14.21,0,0,0-3.14.6,25.29,25.29,0,0,0-4,1.83c-.63.36-1.45,1-1.54,1.58a2.6,2.6,0,0,0,3.64,2.56,18.74,18.74,0,0,0,1.91-1.09c0,.26.15.45.1.59a1.19,1.19,0,0,1-.37.61c-2,1.36-4.37,1-6.61,1.23-.21,0-.45-.35-.68-.54l-2-1.73c-2.63,1.61-2.31,3.93-1.8,5.91.2.78,1.33,1.5,1.24,2.14-.19,1.36,1.28.82,1.42,1.61a8.21,8.21,0,0,0,1.33-1c.48-.53.73-1.38,1.3-1.71a13.38,13.38,0,0,1,3.16-1.1c.11,0,.4.57.6.87a2.47,2.47,0,0,1-.89.32,12.18,12.18,0,0,1-1.65-.3,15.75,15.75,0,0,0-.81,2.61,3.68,3.68,0,0,0,.37,1.79c.34.8.82,1.54,1.43,2.65.07,0,.6.13,1.11.29,1.85.57,2.59-.12,2.32-2-.24-1.69-.57-3.36.82-4.91.86-1,1.16-2.38,1.92-3.45a6.87,6.87,0,0,1,2.3-2.07A14.14,14.14,0,0,1,382.39,227.95Zm-30.93,16.8c-1-.83-1.6-1.79-2.4-2-1.31-.28-3.11-1.14-4,.38a8.15,8.15,0,0,0-.64,4.21c.06,1.35,0,2.17-1.47,2.85-2.44,1.12-3.23,4.12-1.77,5.64.92,1,4.27,1.36,5.62.68.87-.44,1.91-3.7,1.57-4.86l1.67-1.35L347.63,247Zm25.69-24.22c.58.06.93.19,1,.09.94-.93,2.51-1.86,2.59-2.88.11-1.54-.76-3.19-1.42-4.71a2,2,0,0,0-1.82-.12c-1.06,1.26-2.25.72-3.39.45a7.56,7.56,0,0,1-2.34-1.06,2.11,2.11,0,0,0-3.29.76,15.83,15.83,0,0,0-2,4.3c-.2.78.5,1.78.8,2.69a15.22,15.22,0,0,0,1.75-1,7.86,7.86,0,0,1,9.14.19Zm3.5,21.09c-2.6,3.22-5.19,6.33-6.74,10.33.65.1.88.22,1,.14a60.94,60.94,0,0,0,5.76-3.53C383.43,246.47,383.45,243.37,380.65,241.62Zm-4.72-6.4a19.64,19.64,0,0,0,.59,2.64c.24.62.83,1.69,1,1.64.82-.21,2-.6,2.23-1.24a22.34,22.34,0,0,0,1.18-4.89c.2-1.23-1.52-2.67-2.22-2A31.54,31.54,0,0,0,375.93,235.23ZM372,258l1.7-3.89c-2-.54-2,1.26-2.62,2.23C370.93,256.6,371.58,257.32,372,258Zm-26.24,1.23a8,8,0,0,1,2.25-.2c1.67.43,2.48-.19,2.53-2.6l-1.36,1.79C348.1,257.86,346.9,257.5,345.75,259.25Z" transform="translate(-44.97 -26.37)"/><path d="M223.67,198.17c-.74.78-1.53,1.53-2.21,2.37-.39.48-1,1.22-.81,1.62s1,.87,1.53,1.27c.08.06.24,0,.36,0,3.44.32,5,3.55,3.24,6.56a15.3,15.3,0,0,0-1.58,2.46,5.92,5.92,0,0,0-.18,2.73c.22,1.55.73,3.06,1,4.61.42,2.77.86,5.55,1.06,8.35.18,2.45,1.41,4.85.41,7.36,0,.1.17.29.49.79,1.89-1.82,3.77-3.49,5.49-5.32,1.58-1.68,3-3.53,4.5-5.26.25-.29.75-.36,1.52-.72a8.68,8.68,0,0,1-.69,1.94,40,40,0,0,1-8.22,8.95,6.51,6.51,0,0,0-3,5.93,36.25,36.25,0,0,1-.31,8c-.48,3.39-1.29,6.73-2.06,10.07a13.05,13.05,0,0,1-1.17,2.26c-.84,1.82-.06,3.1,1,4.68,1.21,1.73,1.62,4,2.42,6,.72,1.82,1.48,3.62,2.25,5.42.49,1.14,1,2.24,1.52,3.38.94,2.29,1.87,4.58,2.75,6.9.3.81.28,1.76.66,2.52.93,1.89,2,3.71,3.11,5.73l-1,1.06c2.63,1.11,2.92,3.62,3.88,5.7.78,1.69,1.44,3.43,2.22,5.12a1.64,1.64,0,0,0,1,.9c1,.13,3.88-3.09,3.88-4.14,0-2.28,0-4.56,0-6.84a34.18,34.18,0,0,1,1.95-11.86c.62-1.91,1.32-3.8,1.87-5.72.09-.3-.37-1.08-.61-1.1-1.45-.11-2.91-.05-4.36-.05l.29-.46a5.25,5.25,0,0,0-1-1c-.34-.21-1.09-.07-1.19-.29-1.14-2.56.36-6.66,3.2-7.16,1.7-.3,3.33-.62,4.94.55,1,.76,2.15-.55,2.32-2.48.13-1.47.55-2.92.67-4.4a2.19,2.19,0,0,0-.64-1.78,7.51,7.51,0,0,0-2.82-.63c-1.9-.15-2.4.57-1.69,2.38a18.25,18.25,0,0,0,1,1.75c.31.59.59,1.19.9,1.8-1.3.29-4-.81-4.54-2a3,3,0,0,1,.34-3.54,23.75,23.75,0,0,0,2-3.33h2.57l-.19.74c1.51,0,3,0,4.48,0a2.69,2.69,0,0,0,1.46-.76c-3.69-.91-4.24-4.3-5.73-6.84-.32-.54.14-1.87.65-2.5,1.42-1.75,3.08-3.31,4.6-5a3.14,3.14,0,0,0,.61-1.25c.08-.27-.21-.74-.08-.87,1.76-1.82.12-3-.88-4.37l1.41-1.47L257,235l.48-.24c1.44,1.57,1.77,3.66,2.39,5.62-2.2,2,.2,3.6.39,5.4.07.62-.08,1.25-.05,1.87a3.86,3.86,0,0,0,.28,1.69,4.2,4.2,0,0,1,0,4.64,1.55,1.55,0,0,0,.35,2.24c1,1,1.41,2.09.15,3.18l-1.14-2.22c-.91,1.73-1.68,3.18-2.41,4.64a4.83,4.83,0,0,0-.26,1.07c.34,0,.78.25,1,.11,1.22-.8,2.38-1.69,3.36-2.4a60.9,60.9,0,0,1,2.18,6.09,48.18,48.18,0,0,1,.74,5.9c3.18,1.27,4,2.63,2.89,5-.49.23-2.26-1.16-1.25,1,.1.22-.3.67-.53,1.13l-1.29-1.46,1.4-2-.26-.35-1.54.46a8.8,8.8,0,0,0-.5-1,5.49,5.49,0,0,1-.79-5.14c.19-.54-.3-1.49-.73-2-1.11-1.42-.5-3.91-3-4.59-.74,1.85-1.42,3.74-2.25,5.56s-2,3.22-2.54,5c-2.21,6.62-4.59,13.22-6.21,20-.82,3.43-.22,7.21-.14,10.83,0,1.09.93,1.09,1.61.53q2.21-1.84,4.28-3.84c.87-.84,1.6-1.81,2.39-2.73l.49.43c-1.55,1.72-3,3.48-4.66,5.13-.71.73-1.82,1.1-2.41,1.89a39.43,39.43,0,0,0-2.45,4.24l-.16-1.62c-1.83,0-2.84,1.19-3.71,2.31,1.22,2.61,2.2,5.07,3.49,7.36a8,8,0,0,1,1.38,5.5c-.71-.49-1.49-.74-1.67-1.21-.76-2-1.28-4-2-6a20.85,20.85,0,0,0-2.19-5c-1.88-2.63-3.9-5-4.82-8.31-.73-2.61-2.75-4.85-3.54-7.46a23,23,0,0,0-2.11-4.47c-.32-.59,0-1.54.42-2.32l-1.92-2.71,1.12-1.54-2.09-.1-.88-1.41.57-.44c-.58-1.3-1.11-2.47-1.62-3.65-.8-1.89-1.66-3.76-2.34-5.7a13.74,13.74,0,0,1-.3-3c-.1,0-.88-.13-1.07-.51-.7-1.39-1.21-2.88-1.78-4.3-1.77,1-2.29,2-1.66,3.94,1.78,5.34,3.6,10.66,5.42,16,.5,1.46,1.06,2.9,1.78,4.86a65,65,0,0,1-7.24-1.24c-2.85-.82-5.6-2-8.39-3.06-.29-.11-.6-.15-.88-.28-.71-.32-2.21.64-2-1,.1-.9.63-2.15,2.09-1.23.07-.38.15-.57.11-.6-2.66-1.76-2.7-4.52-2.89-7.28,0-.55-.86-1-1.08-1.61-.56-1.51-1-3.06-1.51-4.71l1.8-.18.12-.57a5.39,5.39,0,0,0-1.72-.32c-1.49.23-1.74-.5-1.76-1.76a4.57,4.57,0,0,0-.74-1.73c-.69-1.35-1.41-2.69-2.3-4.39l.4-1.37-1.2.13a19.71,19.71,0,0,0-1.21-2.3c-2.48-3.52-5-7-7.49-10.51a1.93,1.93,0,0,1-.26-.95c-.15-2.18-1.26-3.27-3.52-3.45a1.25,1.25,0,0,1-.72-.46q-1.47-1.74-2.88-3.53c-1-1.22-.81-2,.87-2.21.29,0,.55-.33,1.27-.8l-3.12-.57.13-.77-1.37-.4.61-3.87a26.73,26.73,0,0,1,3.23,2.77,42.91,42.91,0,0,1,2.85,4.21c-1.25.23-2.41.75-2.38,2.32,0,.36.41.71.64,1.07,1.69-1.17,3.09,0,5,.58-.6.38-1,.5-1.2.78s-.21.91-.06,1c1.12.75,2.3,1.42,3.72,2.26l-1.29.92,1.21,2.86,1.61-2.31.63,2.47-.19,0c.37.6.72,1.21,1.1,1.8s.77,1.14,1.17,1.69c.51.72,1,1.43,1.66,2.27l-1.86.54c.75.44,1.23,1,1.56.89,2.35-.54,1.74,2.07,3,2.68-.84,2.11,1.17,3.19,2,4.38,1.11,1.55,2.42,2.73,2.42,4.86a11.54,11.54,0,0,0,1,3.21c.68,2.09,1.29,4.2,2,6.27.31.87,1,1.6,1.34,2.46a12.28,12.28,0,0,1,.83,2.84c.28,1.87,1,3.12,3.05,3.66,2.46.64,4.78,1.79,7.2,2.6a9.39,9.39,0,0,0,2.6,0c-.46-1.67-.83-3.24-1.34-4.75-1.52-4.54-3-9.08-4.66-13.58-1.55-4.27-3.24-8.49-4.87-12.73s-3.38-8.47-4.9-12.77a16.27,16.27,0,0,1-.45-4c1.21-.58,2.34-1.1,3.46-1.65a10,10,0,0,1,1.46-.77c1.15-.34,1.68.26,1.39,1.44-.13.52-.2,1.06-.29,1.59-2.14-.49-3.87,1.87-3,4.4s1.9,5.19,2.81,7.8c.62,1.77,1.07,3.61,1.73,5.36.21.56.84,1,1.32,1.49a4,4,0,0,0,1-4.68c-.84-2.42-1.59-4.87-2.37-7.3l.72-.23L219.1,254c2.29-.27,2.07-2.44,2.55-3.85.61-1.76.59-3.73,1-5.58a48.62,48.62,0,0,0,.67-11.41c0-1.69-.23-3.38-.32-5.07a1.65,1.65,0,0,1,.19-1.06c1.44-1.65.78-3.4.4-5.19s-.46-3.76-.9-5.58a22.61,22.61,0,0,0-1.58-3.87c-.1-.22-.55-.51-.7-.45-2.24,1-1.82-1.2-2.51-2.34,1.41.09,2.83.09,4.22.31,1.18.19,2.57-.51,2.65-1.68.1-1.31-.73-1.84-1.94-1.92l-5.52-.38c0-.19-.05-.39,0-.4,3-1.23,1.71-3.62,1.62-5.71a8,8,0,0,1,.53-3c1,2.49,2.85,1.26,4.3,1.36Zm34.53,58.47c-.16-.76-.35-1.4-.42-2-.18-1.72-.27-3.46-.49-5.17a1.41,1.41,0,0,0-.78-1c-.23-.08-.71.3-1,.57-1.54,1.56-1.62,3.42-1.18,5.45C254.86,256.83,255.61,257.34,258.2,256.64Zm-5.6,18.61c-.35-1.29-.42-1.34-2.62-2.1-1.44-.5-4.45,0-4.67.9-.41,1.73,1.25,2.29,2.18,3.25,0,0,.08.11.13.13.75.27,1.81,1,2.2.71A18.42,18.42,0,0,0,252.6,275.25Z" transform="translate(-44.97 -26.37)"/><path d="M284.48,106.8l1.9-.85-1.86-.8c-.82-3.78-1.44-7.5-5-9.76,1.24-1.59,2.61-1.6,3.73-.16a4.77,4.77,0,0,0,1.19.89c.75.5,1.8.81,2.21,1.51.78,1.3,1.46,1.2,2.91,1,4.89-.54,9.13-2.86,13.65-4.39.72-.24,1.27-1,2.16-1.71,1.22.66,1.2-.58,1.41-1.79a13.51,13.51,0,0,1,1.11-4.29c1.53-2.74,4.37-2.26,7.36-2.59l-4.46,7.33c1.66.77,3.15,1.94,4.7,2,1.34.07,2.76-1,4.1-1.74a1.54,1.54,0,0,0,.53-1.09c0-.45,0-1.15-.24-1.33a2,2,0,0,0-1.54-.16c-1.11.37-2.16.91-3.64,1.57,2-3.34,2.06-4.49,8.09-3.58l-.67,1.29,1.11.83c-.84,1.15-1.58,2.25-2.42,3.27a5.16,5.16,0,0,1-1.33,1c-1.73,1.07-2.36,2.36-1.36,4.39a3,3,0,0,1-.4,2.64c-.91,1.05-4.18,1.24-5,.48-1.41-1.25-2.72-2.61-4.07-3.93l.3-.55c.43.12,1,.12,1.26.38.69.6,1.27,1.33,1.9,2,1.28,1.35,2.65,1.71,4,.58l.61-2.69a47.45,47.45,0,0,0-4.41-2.92A11.4,11.4,0,0,0,309,93.1c.13.87.2,1.21.23,1.56.11,1.05-.25,1.18-1.3,1-1.51-.29-3.23-.69-4.6-.24-4,1.34-7.94,3.09-11.91,4.63a6.47,6.47,0,0,1-1.77.13c-1.55,2.13-1.08,3.68,1.44,4.95a16.67,16.67,0,0,1,2.7,2.09c.65.52,1.29,1.05,2,1.61l-1,1.6,2.22-.76v2l1.19.14-.34.28c.72.86,1.4,1.75,2.17,2.57a42.56,42.56,0,0,1,3.22,3.33c1.64,2.2,3.07,4.55,4.61,6.82,1,1.42,2.08,2.75,2.93,4.24,1.36,2.37,2.53,4.85,3.82,7.27.28.53.77.95,1,1.48,1.4,3,2.72,6.14,4.15,9.17.35.73,1.18,1.24,1.51,2a43.79,43.79,0,0,1,2,5.24c.14.45-.37,1.1-.21,1.39a26.5,26.5,0,0,1,1.78,2.81,28,28,0,0,1,1.47,3.89,11.14,11.14,0,0,1,.14,2.35c1.1.6,1.71,2.19,2.17,3.87s1,3.59,1.37,5.41a9.46,9.46,0,0,1,0,2,1.93,1.93,0,0,0,.08.71c.54,1.39,1.11,2.77,1.87,4.64l-2.82-.74.21-2.1-.74-.08-.63-4.11,1.2.24.23-.55-2.71-1.17-.74-5.68-.55-.15c-.2.58-.65,1.21-.54,1.73.49,2.32,1.24,4.59,1.72,6.91.62,3,1.07,6,1.61,9,.51,2.83,1,5.67,1.55,8.5a5,5,0,0,1,0,.92,29.24,29.24,0,0,0,1.25,8.92c.56,1.82.37,3.86.57,5.79s.39,3.75.7,5.61c.36,2.17.94,4.31,1.24,6.49.36,2.67.54,5.36.77,8.05.39,4.5.75,9,1.15,13.51a4.15,4.15,0,0,0,.36,1,14.76,14.76,0,0,1,.63,6.43c0,.44-.48.85-.89,1.51-.21-2.46-.34-4.55-.59-6.62-.53-4.47-1.14-8.92-1.67-13.39-.41-3.44-.68-6.9-1.17-10.32-.53-3.7-1.33-7.36-1.83-11.06-.38-2.76-.32-5.57-.73-8.32-.77-5.15-1.74-10.28-2.64-15.41-.74-4.25-1.43-8.52-2.28-12.75-.55-2.73-1.35-5.41-2-8.12-.33-1.35-.71-2.69-.93-4.05-.72-4.63-3.17-8.51-5.33-12.52-1.26-2.35-2.26-4.85-3.48-7.22a33.66,33.66,0,0,0-2.76-4.6c-3.23-4.38-6.54-8.7-9.84-13-3.82-5-7.64-10-11.53-14.92-.52-.66-1-1.68-2.34-1.25C286,107.89,285.28,107.22,284.48,106.8Zm3.59-2.27c-.12.5-.42,1-.27,1.26,1.37,2,2.72,4,4.27,5.92,2,2.4,4.37,4.49,6.18,7,2.36,3.26,4.63,6.53,7.28,9.59,2.46,2.84,4.2,6.3,6.29,9.46.81,1.24,1.7,2.42,2.56,3.63a15.46,15.46,0,0,0-3.92-8.15c-.28-.3-.33-.8-.58-1.15-.58-.81-1.26-1.55-1.83-2.38s-1.23-2-1.94-3.12l.28-.34c-.62-.33-1.34-.49-1.67-.93-1.75-2.38-3.26-4.94-5.12-7.23-2.81-3.46-5.85-6.72-8.76-10.09C290,107,289.18,105.93,288.07,104.53Zm32.58,45.09c-.59-.27-1.23-.35-1.42-.69-.91-1.6-1.73-3.25-2.51-4.92-.4-.85-.22-2.17-2.38-1.9l4.37,8.62Z" transform="translate(-44.97 -26.37)"/><path d="M257.37,353.71a4.73,4.73,0,0,1-2-2.74,40.19,40.19,0,0,0-4.12-7c-.21-.32-1.15-.17-1.76-.24l-.28-3.66-.63.06-.66,2-1.8-2.11,2.13-.53-.09-.65-3.42.4,1.27,1.83c-.77.49-1.56,1.09-.36,2a3.15,3.15,0,0,1-.43.34c-1.87-1.51-4.71-.38-6.68-2.5h1.89l.2-.55a5.46,5.46,0,0,0-1.68-.51c-.91,0-2,1.2-2.51-.57l-2.69.78.15.3-2.16-.39c-.16-.42-.25-1.14-.51-1.21-1-.26-2.31-.76-3.07-.35-1.17.63-1.51.36-2.55-.32-1.41-.93-3.34-1.06-5.06-1.51-.68-.18-1.38-.3-2.07-.44-2.18-.46-4.38-.83-6.52-1.43a16.27,16.27,0,0,1-3.08-1.58,8.65,8.65,0,0,0-.75-.47c-2.24-.92-4.5-1.81-6.63-2.67l1.14-2.83c6.8,4.16,14.56,5.64,22.68,6.6a5.15,5.15,0,0,1-.56-1.63c0-.45.42-.89.85-1.7,1.22,4.36,4.06,5.83,7.89,6,2.38.11,4.74.5,7.11.65a24.69,24.69,0,0,0,2.87-.29,11.18,11.18,0,0,1,3,.21c1-.41,1.09-1.19.55-2.22-2.13-4.09-4.21-8.2-6.32-12.29-1.13-2.2-2.3-4.38-3.4-6.6-2.07-4.16-4-8.39-6.18-12.5a9.38,9.38,0,0,0-5.31-4.42,32.15,32.15,0,0,1-6-3.39c-1.34-.87-3.46-.46-4.11-2.57-.1-.31-1.3-.16-1.86-.46-2.43-1.3-4.79-2.73-7.23-4-1.52-.8-3.18-1.32-4.68-2.15-2.4-1.31-4.74-2.74-7.07-4.18a7.71,7.71,0,0,1-1.82-1.7,22,22,0,0,0-2-2.25c-1.74-1.5-3.56-2.9-5.35-4.34-.64-.51-1.28-1-1.93-1.51-.94-.73-2.44-1.3-2.71-2.22-.44-1.52-2.94-1.21-2.53-3.3.06-.33-1.13-1-1.81-1.35-2.86-1.51-4.45-4.37-6.83-6.39a1.12,1.12,0,0,1-.27-.81,29.82,29.82,0,0,1-4.12-2.75c-1.43-1.34-2.42-3.16-3.89-4.43-1.67-1.45-3.08-3.27-5.48-3.87-.77-.19-1.1-1.75-1.89-2.32a26.51,26.51,0,0,1-4.68-4.09,3.54,3.54,0,0,1-.35-.92c-.12-.3-.29-.83-.43-.83-3.73.14-4.84-3.28-7-5.22-.31-.28.11-1.27,0-1.88a4.51,4.51,0,0,0-.91-1.31l-.85,1.15c-2.38-1.37-2.39-4-3.25-6.7l4.77,4.49c1.08-.43,2.06-.22,1.9,2,0,.6.86,1.41,1.5,1.9,2.69,2.09,5.89,3.52,7.76,6.66.67,1.12,2.08,1.85,3.23,2.63,1.66,1.12,3.88,1.56,4.46,3.92,1.53-.07,2,1.32,2.81,2.17,1.3,1.4,2.26,3.15,3.65,4.43A27.1,27.1,0,0,0,171,256c-.45,3,3.5,3,3.76,5.6l.87-1.2,1.31,2.58-.33.12,4,3.77-.22.16a6.49,6.49,0,0,1,1.81,1c1.1,1.14,1.91,2.59,3.1,3.61,2.58,2.21,5.32,4.23,8,6.33a19.65,19.65,0,0,1,3,2.34c2.37,2.77,5.74,4,8.73,5.75,4.37,2.61,8.8,5.1,13.27,7.54,3.49,1.91,7.05,3.68,10.6,5.48,2.64,1.34,3.49,3.94,4.65,6.36,1.86,3.9,3.85,7.74,5.73,11.64,1.52,3.15,2.91,6.35,4.44,9.49.85,1.73,2,3.33,2.82,5.07,1.47,3.06,2.75,6.22,4.25,9.27,1.09,2.23,2.45,4.33,3.58,6.55,1.06,2.06,2,4.19,2.95,6.29Z" transform="translate(-44.97 -26.37)"/><path d="M427.76,266.3c.62-3.35,1.27-6.69,1.85-10,.1-.59-.21-1.23-.17-1.84.16-2.18,2.29-2.23,3.59-3.17,2.25-1.65,4.55-3.23,6.84-4.83q2.7-1.89,5.42-3.76c.55-.38,1.13-.73,1.69-1.09l-.45-.65a8.43,8.43,0,0,0-2.72.57c-3.43,2.09-7.33,3-11,4.46a2,2,0,0,1-1.63-.38c-.3-.23-.34-.9-.36-1.38a1.5,1.5,0,0,1,.15-.73c1.86-.66,3.4-1.22,5-1.74,2.63-.88,5.26-1.73,7.9-2.59,1.76-.57,3.52-1.12,5.27-1.7.9-.3,1-.74.54-1.66-1.65-3.07-1.59-3.1-2.6-3.56-.38-2.17-.76-4.26-1.12-6.35A1.6,1.6,0,0,1,446,225c1.24-2.64.67-5.64,1.85-8.36,1-2.24,1-4.87,1.83-7.19.94-2.67,2.29-5.2,3.45-7.8.74-1.64,1.43-3.31,2.22-4.93a89.89,89.89,0,0,1,4.51-8.9c3.91-6.18,8-12.26,12.19-18.25,4-5.69,8.18-11.22,12.49-17.1.3.55.8,1.07.69,1.34a5.54,5.54,0,0,1-1.2,1.46c-.38.41-.83.76-1.17,1.19-1,1.24-1.91,2.52-2.87,3.77-.11.14-.42.24-.41.32.38,2.66-2.13,3.78-3.18,5.65-.66,1.19-1.82,2.16-2.22,3.62,0,.16-.74.14-.74.46-1,1.52-1.91,3.06-2.88,4.57-.57.88-1.16,1.75-1.77,2.61-1.95,2.75-4,5.45-5.84,8.25-.56.83-.7,1.94-1.19,2.84-1,1.85-2.18,3.63-3.22,5.48a12.61,12.61,0,0,0-.69,1.94c-.81,2.23-2.75,4-2.81,6.56,0,.33-.68.64-.62,1l-1.11,5.05-2.22-.21c1.53,2,.38,3.66-.21,5.39a6.71,6.71,0,0,0-.21,1.2c-.1.69.05,1.6-.33,2.05-2,2.35-1.23,5.2-1.37,7.8a50.63,50.63,0,0,0,.67,8.51c.29,2.49,3,3.48,5.17,1.73,3.88-3.18,7.63-6.51,11.41-9.81,1.4-1.22,2.73-2.53,4.4-4.09l-2.71-.93a43.23,43.23,0,0,0,3.61-3.08c1.59-1.67,3-3.5,4.52-5.25a3.65,3.65,0,0,1,1-.85c1.66-.9,1.67-.89,1.83-1.69l3.87-3,.3.36a28.42,28.42,0,0,1-1.43,3c-1.06,1.73-2.18,3.43-3.4,5.05s-2.21,3.74-4.43,4.72c-.59.26-.63,1.79-.92,2.73,0,.11.06.3,0,.34q-2.61,2.28-5.24,4.55l-.45-.36.08,1.47-.52-.35c-.6.59-1.24,1.14-1.8,1.77a16.5,16.5,0,0,1-1.87,2.26c-2.59,2-5.31,3.82-7.89,5.83a15.66,15.66,0,0,0-2.18,2.71l-.86-.82c-2.88,2.21-5.6,4.51-8.54,6.51-3.9,2.64-8,5-11.92,7.58a3.21,3.21,0,0,0-1.12,2c-.64,3.4-1.15,6.83-1.77,10.24,0,.2-.64.3-1,.44Z" transform="translate(-44.97 -26.37)"/><path d="M369.6,101.36c.42.08,1.1,0,1.21.26a28.49,28.49,0,0,1,1.12,3.28,14.24,14.24,0,0,0,1.32-2.3c1-3,2-6,2.8-9,1.09-4,3.61-7.41,5.1-11.19,1.33-3.39,3.36-6.43,4.48-9.92.52-1.62,2.26-2.87,2.68-4.48,1-3.72,3.88-6.32,5.21-9.78a20.11,20.11,0,0,1,1.6-3.67c1-1.5,2.2-2.81,3.28-4.23s2.2-3,3.34-4.52c.42-.55,1-1,1.43-1.54a9.64,9.64,0,0,0,1.08-1.92,4.2,4.2,0,0,0,.13-1.25l1.58.28-.35-1.28c.39.27.75.38.83.59.2.57.57,1.35.35,1.74a11.61,11.61,0,0,1-2.34,3c-1.94,1.69-2.92,3.93-4.12,6.09-1.79,3.22-3.81,6.31-5.59,9.54-1.28,2.32-2.31,4.77-3.48,7.15-.55,1.12-1.22,2.18-1.76,3.3-1.46,3-2.94,6.05-4.32,9.12-1.58,3.5-3,7-4.59,10.56-1,2.27-2.22,4.45-3,6.79a64.59,64.59,0,0,0-2.2,8.74,60,60,0,0,0-.67,7.53c0,.51.54,1,.69,1.56.21.76.28,1.55.5,2.78,2.39.76.51,3.05,1.14,4.94l.63-1.33,1.88,3.08-1.6-.09c.07.38.15.76.22,1.14.51,2.72,2.29,3.06,4.62,2.39l-.24-1,.41.35,3.5-3.55.3.24c-.67.86-1.38,1.7-2,2.6-1.13,1.67-2.62,3.19-2.72,5.38,0,.55.09,1.1.07,1.64A8.41,8.41,0,0,0,382,137a12,12,0,0,0,1.65,2.85c.13.21.46.29.93.56l-2.17.48c3.2,1.33,2.86,3.92,3.34,6.15s2.63,3.92,1.66,6.45l2.21,1.63-1.51.51,2.86,4.57-2.32.84L386.73,156l.23-.13a13.78,13.78,0,0,1-.56-1.87c-.17-1-.22-2.09-.33-3.2l-.41.83c-.37-1.24-1.6-1.87-.9-3.42.35-.77-1.05-2.32-1.69-3.58l.72-.56c-2.13-1.82-4.69-9.57-4-11.33a10.45,10.45,0,0,1-1.49-2.15A21.75,21.75,0,0,1,377,125.9c-.3-2.31-1.77-4.51-2.94-6.64a7.12,7.12,0,0,0-2.19-2.47c-.74-.52-.62-2.31-.84-3.54q-.6-3.4-1.14-6.82a11.67,11.67,0,0,1,0-1.18c0-.81-.12-1.62-.18-2.43,0-.5-.06-1-.1-1.5Z" transform="translate(-44.97 -26.37)"/><path d="M369.2,370.62c.88,2.31-1.23,3.3-2.32,4.41-1.91,2-4.34,3.39-6.51,5.09-1.13.89-2.12,2-3.25,2.84-.91.71-1.94,1.26-2.9,1.9q-2.58,1.71-5.15,3.45c-1.14.78-2.27,1.58-3.4,2.37-2.56,1.8-5.09,3.64-7.67,5.4a18,18,0,0,1-4.39,2.55c-2.06.65-1.92,2.36-2.42,3.78-.59,1.69-1.13,3.4-1.57,5.14-.79,3.14-2.62,5.94-2.88,9.27a12.06,12.06,0,0,1-1.12,3c-1.27,3.36-2.39,6.78-3.83,10.07-3,6.79-5.84,13.62-9.21,20.21-3,5.78-6.51,11.27-9.88,16.84a67.08,67.08,0,0,1-4.61,6.76c-.78,1-2.07,1.57-3.54,2.63-.41-2.38-.72-4.26-1-6.14-.36-2-.77-4.07-1.1-6.11a2.15,2.15,0,0,1,.17-1.39c3.53-5.46,7.12-10.89,10.68-16.33q3.24-5,6.46-9.92c.42-.65.78-1.35,1.22-2.13l1.33,2.09-3,3.26a.53.53,0,0,0-.15.33c.15,3.92-2.91,6.05-4.94,8.73a2.48,2.48,0,0,0-.79,2.2c.11.88-1,2-1.64,2.88-1.25,1.67-2.76,3.17-3.84,4.94a36.79,36.79,0,0,0-3.09,6.49,11.15,11.15,0,0,0-.24,3.91,23.86,23.86,0,0,0,.38,3.47,4.69,4.69,0,0,0,.61,1.23c.35-.18.81-.28,1-.56,1.77-2.36,3.58-4.71,5.22-7.17s3.37-5.18,4.88-7.88c1.81-3.24,3.47-6.56,5.13-9.88,1.92-3.85,3.83-7.71,5.62-11.63.94-2.07,1.6-4.26,2.4-6.39,1.11-3,2.28-5.88,3.34-8.85.71-2,1.25-4,1.91-6,.48-1.45,1.08-2.85,1.54-4.31,1.22-3.9,2.37-7.82,3.63-11.7a2.38,2.38,0,0,1,1.22-1.43c3.46-1,5.65-3.93,8.58-5.74,3.31-2,6.55-4.2,9.75-6.42,2.95-2,5.68-4.39,8.71-6.28,4-2.5,7.24-5.89,10.74-9Z" transform="translate(-44.97 -26.37)"/><path d="M254.57,334.52l1.46.07-.21,1.41a33.32,33.32,0,0,1,2.35,2.7c1.13,1.61,2.17,3.28,3.18,5a20.61,20.61,0,0,0,1.11,2.38,40.21,40.21,0,0,0,3,3.06l6.39-9.46c-.21-1.36.52-2.49,2.28-3.46.49-.27.61-1.2.61-1.94l3.33-6.57.77,0c.84-2.95,2.35-5.7,2.21-8.37-.18-3.18,2.17-5.21,2.39-8.24l-.86.57c.21-2.38.36-4.85.67-7.29a9.4,9.4,0,0,1,1.25-3.39c-.4-1.32-.62-2.43,1.42-2.69.31,0,.52-.87.84-1.46l-2.17.28c.05-.59.15-1.18.14-1.76,0-1.37-.17-2.74-.12-4.11s.31-2.88.46-4.32a1.81,1.81,0,0,0,0-1c-.49-.78-1.33-1.07-1.22-2.5s-.47-1.55,1.7-2.66c0,1.68,3.41.78,2.29,3.64l-1.1-2.08c-1,1.28-1.3,1.82-.28,2.58.59.44.63,1.66.84,2.55.13.55-.11,1.37.2,1.67,1.23,1.19.63,2-.37,2.77l1.52,1.78c-.78.62-1.51.92-1.73,1.44-.32.76,0,1.4,1.05,1.46a1.75,1.75,0,0,1,.26,1.28c-.2.54-.65,1.32-1.09,1.39-1.39.21-1.44.89-1,1.94a1.69,1.69,0,0,1,.21.89c-.3,1.26-.35,2.36,1.65,2.57L285.86,306l.57.23c-.1.91.13,2.11-.37,2.69-1.15,1.34-1.31,2.09.37,2.33l-1,6.17-.4,0-.59-1.88h-.35l-.45,8.7c-1.68.13-3.13,2-3.91,4.43-1.48,4.59-3,9.2-6.57,12.73-.56.55-.6,1.59-1,2.3a73,73,0,0,1-4.35,6.42,16.08,16.08,0,0,1-3.15,2.48c-1.77-2.15-1.52-4.94-4-6.23-.44-.23-.49-1.22-.77-2a16,16,0,0,1-2.21-2.42,59.05,59.05,0,0,1-3-5.57,4.93,4.93,0,0,1-.16-1.69Z" transform="translate(-44.97 -26.37)"/><path d="M533.85,58c1.06,3,2.37,5.95,3.12,9a92.14,92.14,0,0,1,1.4,9.44c.17,1.23-.06,2.68.52,3.64.86,1.43-1.13,2.09-.49,3.25-1.13.5-.34,1,0,1.54.12.2.33.45.3.64-.46,2.68-1,5.35-1.44,8a31.24,31.24,0,0,0-.29,3.16c0,.77,0,1.54-.07,2.3a15.6,15.6,0,0,1-.62,2.93c-.13.38-.69.61-.67.6,0,1.55.37,3-.09,4-.67,1.56-.24,3.56-1.85,4.75-.18.13-.22.53-.22.81a36.66,36.66,0,0,1-1.42,9.18c-1,3.59-1.64,7.29-2.49,10.93a4.5,4.5,0,0,1-.87,1.33c-.16.23-.46.42-.51.66-.63,3-1.09,6.09-1.92,9.05-.28,1-1.47,1.74-2.48,2.87l1.68.24-.61.86-1.21.24c.16,1.09.63,2.18.35,3s-1.3,1.43-1.94,2.07a21.21,21.21,0,0,1,.16,3.76c-.28,2.24-2.06.87-3.14,1.23l-.25-.39,3.11-2.11c-2.73-2.27-.46-4.6.13-6.92s1.48-4.43,2.24-6.63l.12,1.16,1.21-1.39-1.47-1.16c.95-2.19,2-4.6,3-7a2.45,2.45,0,0,0,.11-1.25,6.75,6.75,0,0,1,1-4.81,2.15,2.15,0,0,0,.19-1.12,4.94,4.94,0,0,0-.21-1l.85.59.57.39.56-.24c-.3-.74-.64-1.46-.89-2.22a4.16,4.16,0,0,1-.21-1.36c0-.33.35-.7.27-1-.37-1.26-.21-2.12,1.52-2-.79-1.53-1.21-2.81.17-4,.22-.19.25-.69.26-1,0-1.42-.27-3,1.72-3.72l-1.22-.82a18.76,18.76,0,0,1,0-3,15,15,0,0,1,.91-2.63c.63-1.65,1.63-3.24.73-5.11,0-.1-.07-.33,0-.35,2.23-1-.18-3,1-4.32.2-.23-.11-.91-.2-1.5h.61c.25-2.17.49-4.17.71-6.16s.31-3.81.64-5.69a11.59,11.59,0,0,1,1.17-2.61c-.26-.21-1.26-.67-1.25-1.11,0-.65.73-1.3,1.24-2.1l-1.57-.55,1.49-1c-2.23-.76-1.69-2.62-1.86-4.2s-.24-3.22-.36-4.9c-1.81-.4-2.89-3.84-1.54-5.45a4,4,0,0,0,.45-1Z" transform="translate(-44.97 -26.37)"/><path d="M345.22,322.46l-.81.17c.15,1.56.4,3.09.42,4.62a50.94,50.94,0,0,1-.25,6.19c-.07.61-.81,1.14-1.25,1.71l-1,1.21,1.83-.2-.74,4.91-1.62.41,1.22.78c-.16,2.19-.29,4.14-.45,6.08a8,8,0,0,1-.31,1.24,39.16,39.16,0,0,0-1.27,5.29c-.26,2.5-.12,5-.3,7.56a18.79,18.79,0,0,1-.82,3.14c-.34,1.36-.63,2.73-1,4.08-.33,1.19-.83,2.33-1.09,3.52-.63,2.82-1.14,5.68-1.79,8.49-.11.48-.67.87-1.06,1.35.49,1.2,1.24,1.23,2.46.78,3.1-1.14,5-3.76,7.52-5.66q4.07-3.09,8-6.31c1.09-.88,2.06-1.92,3.13-2.83q3-2.53,6-5c.22-.18.63-.11,1.3-.2l-1,3.11-.42-.48c-1,.59-2,1.16-2.93,1.76-.35.22-.65.68-1,.71-1.13.1-1.66.48-1.58,1.74,0,.37-.75.83-1.2,1.19a6.93,6.93,0,0,0-2,2.07l-1.19-.32.15,2.15-7.59,5.47a1.07,1.07,0,0,0-.38.38c-1.45,3.39-4.85,3.67-7.7,4.81-.23.09-.61-.21-.88-.32l-3.16,1,2.91-10.4.15.09a15.54,15.54,0,0,1,.59-3.54c.74-1.79.41-3.9,1.81-5.5.27-.31-.13-1.14,0-1.69.37-1.92,1-3.81,1.2-5.74.27-2.54.2-5.12.35-7.68a14.66,14.66,0,0,1,.56-1.85,4.14,4.14,0,0,0-.14-1.2c1.42-.08,2.09-.23,1.15-2.16-.7-1.44-.18-3.58.13-5.36s1.39-3.55.82-5.8c-.43-1.68.48-3.71.79-5.58.11-.7.16-1.42.3-2.11a11.8,11.8,0,0,1,.41-1.35,9.69,9.69,0,0,1-.47-2.26c.1-3.12.34-6.23.42-9.35,0-.53-.47-1.08-.77-1.74,1.85-.64,1.85-1.58.57-2.78a1.57,1.57,0,0,1-.26-1.1c.15-2.77,1-5.73.33-8.25-.78-2.79,1.88-3.57,2.13-5.57,0,1.58,0,3.17,0,4.75a57.75,57.75,0,0,1-.44,7.41c-.39,2.35.4,4.68-.4,7-.44,1.29-.1,2.87,0,4.32A22.58,22.58,0,0,0,345.22,322.46Z" transform="translate(-44.97 -26.37)"/><path d="M394.62,270.75l-.65-2.6.48-.24,1.62,2.2.95-.35a1.86,1.86,0,0,1,.12.61,6,6,0,0,0,.81,5.09,7.12,7.12,0,0,1,.88,6.54l2.82,1.23c-.54,1-3-1.09-2.22,1.3.34,1-.44,3.54,2.34,3l-1.29.79,2.69,6.73c-1.24.54-2.32,1-1.29,3.4.89,2,.4,4.66.59,7,.38,4.65-1,9.1-1.63,13.63-.11.87-1.21,1.63-1.93,2.37-.15.15-.71,0-1-.13a.86.86,0,0,1-.08-.83c3-4.41,1.5-9.36,1.68-14.09a23.23,23.23,0,0,0-.84-4.93c0-.18-.21-.38-.16-.51,1.13-3.27-.81-6.12-1.28-9.16-.62-4-1.23-8-2-12a25.38,25.38,0,0,0-1.88-6C392.53,272.14,392.79,271.24,394.62,270.75Z" transform="translate(-44.97 -26.37)"/><path d="M252.43,71.69l-.62,1.69-3.15-2.33-.28.48L250,72.75a2,2,0,0,1-2.61-1.49c-.23-.89-.29-2.38.22-2.8A11.69,11.69,0,0,1,252.24,66a76.31,76.31,0,0,1,8.41-1c.1-.74,0-1.82.41-2.47s1.74-1.66,2.38-1.48c1.49.4,3.43.19,4.28,2.1.15.34.82.49,1.28.66,2.85,1.1,2.85,1.1,2.72,3.93L273,66a8.35,8.35,0,0,1,.76,2.41A2.52,2.52,0,0,1,271.22,71a16.15,16.15,0,0,0-1.28-3.09,23.24,23.24,0,0,0-3.45-4.19c-.43-.4-1.63,0-2.47.1a8.89,8.89,0,0,0,.52,2.35c.48.91,1.33,1.63,1.83,2.54.19.35-.06,1-.3,1.48-.09.16-.73,0-1.11,0a5.53,5.53,0,0,0-1.88.27,11.23,11.23,0,0,0-2.6,1.69,20.91,20.91,0,0,0-2.12,2.46c-.55.67-1.07,1.37-1.92,2.47.33,1,.81,2.48,1.37,4a.89.89,0,0,0,.81.26c1.27-.5,3.06-.75,3.63-1.7,1.07-1.79,2.88-1.25,4.16-2.14a13.35,13.35,0,0,1-7.26,6c-.86.3-3.94-1.51-4.75-2.6-1-1.41-.17-2.69.31-3.9a22.38,22.38,0,0,1,1.91-3c.16-.26.16-.93,0-1-.69-.32-1.59-.88-2.13-.66-1.13.47-1.58-.13-2.16-.76l1.77-.44c1.42-.34,2.9-1.1,4.25-.9a3.1,3.1,0,0,0,3.55-1.66c-1.1-.38-2.52-1.31-3-1-1.94,1.44-3.82.15-5.65.13-1.66,0-3.3.53-3.33,2.31a3.79,3.79,0,0,0,.52,1.31l1.08-.5C252.38,70.57,252.7,70.79,252.43,71.69Z" transform="translate(-44.97 -26.37)"/><path d="M259.17,295c.68-1.16,1.29-2.36,2-3.48,1-1.52,2.35-2.75,2.46-4.89.07-1.4,1.17-2.75,1.81-4.15a18.47,18.47,0,0,1-1.93-1.71c-.2-.23-.08-.75-.11-1.13.33,0,.79-.1,1,.07a25.79,25.79,0,0,0,1.74,1.92,1.9,1.9,0,0,0,1.65.34,4.17,4.17,0,0,0,1.79-2c.92-3.41,1.67-6.88,2.36-10.35.11-.55-.43-1.22-.67-1.84-.46.44-1.13.79-1.34,1.32-.5,1.28-.79,2.65-1.34,4-.68-1.79-.17-3.61-.21-5.42a1.89,1.89,0,0,1,1.79-2.21c.6-.12,1.58-.09,1.85.27a4.57,4.57,0,0,1,1.21,2.8c-.48,3.52-1.27,7-1.92,10.51-.22,1.19.31,1.39,1.47,1.36a8.42,8.42,0,0,1,3.92.7c.49.25.56,1.77.46,2.68-.21,1.9-1.95,3.45-4.49,4a8.37,8.37,0,0,0,1.41-1.65c.36-.82,1-2.12.64-2.52a3.07,3.07,0,0,0-2.66-1,28.18,28.18,0,0,0-5.1,3.07,1.5,1.5,0,0,0-.24,1.4,3,3,0,0,0,1.64.46c.76,0,1.81-.38,2.23,0a6.37,6.37,0,0,1,1.24,2.45,11.73,11.73,0,0,1,.41,1.57l.81.08c-1,2.54-1.92,5.11-3,7.6a2.27,2.27,0,0,1-1.66,1c-4.9.34-6.06-3.76-5.5-7.8,0-.34.12-.68.2-1.11l-4,3.6Zm5.52-3.51c0,1.32,0,2.59,0,3.86s.25,2.28,1.52,2.6a2.7,2.7,0,0,0,3.34-1.28,11.75,11.75,0,0,0,1-4.91c-.11-2.16-1.71-2.84-3.37-1.88l-.51-1.38-2,.91C265.31,290.35,267.12,291.32,264.68,291.53Z" transform="translate(-44.97 -26.37)"/><path d="M254.45,201.65c-1.27.37-1.51,1-.63,2,.26.29.63.85.52,1.08-1,2,.5,3.79.49,5.7a3.11,3.11,0,0,1-2.62-3.12c-.12-2.87-.4-5.74-.5-8.61-.13-3.66-.15-7.33-.17-11a4.7,4.7,0,0,1,.56-1.44l-.87-.57,1.31-4.18-1.48,1c.43-1.53-.43-3.33,1.23-4.44.21-.14,0-1-.09-1.48-.26-1.07-.59-2.12-.89-3.19,0-.11-.11-.29-.07-.32,1.42-1.21.73-2.5.29-3.86-.09-.28.56-.91,1-1.22a5.43,5.43,0,0,1,1.56-.45c-1.19-.86-1.45-1.47-.38-2.4,1.23-1.07-.37-1.79-.63-2.69a7.15,7.15,0,0,0-.57-1.17l.36-.29,1.49.79.58-3.67-1-.88a16.18,16.18,0,0,1,1.22-2.1c.74-.94,1.61-1.79,2.42-2.68l-.55-.53-2.23,2.11-.55-.6a25.83,25.83,0,0,0,2.55-2.32,35.48,35.48,0,0,0,2.26-3.41L255.54,149c.67-.91,1.67-1.69.38-2.06l.6-2c3.21.87,3.16,1.76,2.7,4.14-.32,1.64-1.09,3.19-1.53,4.82-.49,1.8-.87,3.63-1.22,5.46-.77,4-1.48,8-2.22,12.07,0,.18-.16.4-.1.52,1.77,3.33-.34,6.34-.77,9.48,0,.24-.2.64-.14.67,2,1.11-.32,2.8.52,4.09.1.15-.48.75-.35,1.15,0,.61,0,1.23,0,1.84,0,1,0,1.9.06,2.85.08,1.66.58,3.41.2,4.95C253.25,198.71,254,200,254.45,201.65Z" transform="translate(-44.97 -26.37)"/><path d="M406.74,308.91,405,304.64l.27-.42c1.59.82,2.07-.05,2.63-1.19,2.21-4.52,4.66-8.93,6.75-13.51,1.37-3,2.25-6.23,3.38-9.34.31-.86.77-1.67,1.08-2.53,1.48-4.23,3.34-8.39,4.29-12.75a101.34,101.34,0,0,0,2-15.62c.44-7.71.41-15.45.64-23.18a29.53,29.53,0,0,1,.59-3.78h.54c.07.77.19,1.54.19,2.31,0,4.06.11,8.12,0,12.18,0,2.94-.33,5.88-.43,8.82a77.71,77.71,0,0,1-.19,8c-.49,3.5-1.45,6.94-2.2,10.41-.46,2.11-.73,4.29-1.39,6.33-1,3.1-2.29,6.1-3.39,9.16s-2.06,6.36-3.32,9.44c-1.14,2.79-2.63,5.44-3.93,8.17s-2.65,5.66-4,8.47C408.08,306.65,407.48,307.6,406.74,308.91Z" transform="translate(-44.97 -26.37)"/><path d="M400.33,187.44c1.38.59,1.56,1.76.34,3.35-1-2.34-2-4.68-2.92-7.05-.19-.47.05-1.12-.15-1.58a16.91,16.91,0,0,0-2.1-4.12c-1.23-1.48-.45-2.68.17-4.23l-1.73,1-4.86-12.68,2.26-.7a6,6,0,0,0,2.41,5.57l-2.59.49,2.24,1.65-1,1.29,2.73.77-.67,1.27c.15.07.3.18.36.15.73-.41,1.63-.75.9-1.87a5.64,5.64,0,0,1-.25-1.07c1.72,2.16,2.83.91,4,0,2.44-1.87,4.93-3.68,7.29-5.63a21,21,0,0,0,2.06-2.61,26.58,26.58,0,0,1,2-1.85c-1.62-2,1.66-2.58,1.7-4.53l2.11,1.9c-.25,3.7-3.34,5.59-5.36,8.16-1.7,2.15-3.5,4.22-4.91,5.92a20,20,0,0,1-2.24,1.17c-1,.35-2,.59-3,.87-.84.24-1.88.25-2.45.78s-.59,1.53-.84,2.29c.91,1,2.14,1.79,2.66,2.94a15,15,0,0,1,1.12,5c0,.61-.55,1.12.44,1.53C400.25,185.76,400.19,186.63,400.33,187.44Z" transform="translate(-44.97 -26.37)"/><path d="M533.91,57.92a3,3,0,0,1-3.06-1.82c-.72-1.3-1.41-2.62-2.18-3.88a1,1,0,0,0-.93-.14,2.32,2.32,0,0,0-.86,1.22c-.37,2.16-.57,4.35-.94,6.5-.75,4.41-1.61,8.81-2.33,13.22-.25,1.49-.24,3-.36,4.83l-3.08-3.44,1.4-1.19-1.49-1.31,2.46-1.07-1.77-.49,1.85-5.74-2.47,2.08,1.35-4.89,1.93-.28v-3l-1.39.18c.26-1.46.41-2.79.73-4.07s1.08-2.8,1.3-4.24a4,4,0,0,1,4.07-3.73l-.37,2.41,3,.17,0,.59L529.72,51c.91,2.62,4.42,3.65,4.13,6.93Z" transform="translate(-44.97 -26.37)"/><path d="M257.32,353.75a38.68,38.68,0,0,1,3.1,3.7c1.76,2.69,3.35,5.49,5,8.25,2.87,4.77,5.7,9.56,8.64,14.29,1.38,2.22,3,4.25,4.44,6.45,1.29,2,2.35,4.2,3.57,6.28a41.6,41.6,0,0,0,2.36,3.6c1.75,2.38,3.58,4.7,5.35,7.06.9,1.2,1.78,2.41,2.6,3.65,1.09,1.64,2.09,3.33,3.17,5,.62.95,1.34,1.83,2,2.79,1.58,2.45,3.44,4.78,4.57,7.43a12.22,12.22,0,0,0,3.86,4.72c.83.69,1.64,1.4,2.45,2.1l-.22.65c-.54-.11-1.25,0-1.6-.35a33.76,33.76,0,0,1-8.49-10.76,29.33,29.33,0,0,0-2.77-4c-1.15-1.74-2.16-3.57-3.33-5.29-.81-1.18-1.9-2.16-2.68-3.35-.57-.87-1.72-1.63-1-3a.39.39,0,0,0-.07-.34c-1.08-1.24-2.09-2.54-3.27-3.67a14.89,14.89,0,0,1-2.68-4.22,30.44,30.44,0,0,0-2-2.45c-.49-.73-.7-1.63-1.17-2.37-1.62-2.58-3.17-5.22-4.83-7.77-1.11-1.7-2.8-3.26-3.2-5.68-.27-1.59-2.22-2.89-3.4-4.34a5,5,0,0,1-1-1.53c-.95-3.06-3-5.42-4.73-8s-3.13-5.4-4.66-8.13c-.1-.17,0-.46,0-.7Z" transform="translate(-44.97 -26.37)"/><path d="M347.89,183.5l-2.49-.69c-1.84-4.95-1.18-9.85-.29-14.82l.87.13c-.16-.31-.24-.45-.31-.6-.24-.51-.79-1.14-.66-1.52.94-2.75,1.92-5.5,3.09-8.16,1.27-2.89,2.67-5.73,4.17-8.5.84-1.56,2.13-1.47,3.09,0a1.53,1.53,0,0,1,.22.65c.12,1.23.22,2.46.34,3.9-3.17,1,1.45,1.84.16,3.31l-3.45-4.4c0,2.06.07,3.83-1.82,4.92.75,2.09-.5,3.76-1.64,5.54a13.09,13.09,0,0,0-1,3l.53.33-1.54.3.94,1.88-1,4.77-.09.06c-.2.7-.4,1.41-.6,2.11a2.32,2.32,0,0,0-.21.89q.51,3.13,1.12,6.25c0,.24.36.42.55.63Z" transform="translate(-44.97 -26.37)"/><path d="M220.3,187c1.45-.79,2.67-1.83,4-2.07a4.15,4.15,0,0,1,3,1.29c1.66,1.67,1.18,3.21-1.67,5.68a9.45,9.45,0,0,0,.7-2,3.37,3.37,0,0,0-.2-2.11,2,2,0,0,0-1.9-.56,3.45,3.45,0,0,0-1.39,1.92,38.39,38.39,0,0,0-.85,4.11h-.72a11.5,11.5,0,0,1-.56-1.94,7.91,7.91,0,0,0-5.41-6.59,12.87,12.87,0,0,0-2.4-.21,15.91,15.91,0,0,0,1.9,1.85,11,11,0,0,1,3.95,5.29c-3.49.29-5.65-1.64-7.54-4a3.61,3.61,0,0,1,.94-5.5,1.92,1.92,0,0,1,1.6,0C216.11,183.88,218.33,185.58,220.3,187Z" transform="translate(-44.97 -26.37)"/><path d="M289.68,77.82a6.1,6.1,0,0,1,.18-1.64c.56-1.41,1.26-2.77,1.82-4.18.15-.38.12-1.21,0-1.26a2,2,0,0,0-1.54,0,82.11,82.11,0,0,0-6.57,5.49c-1.57,1.52-3,1.37-4.46-.27-1-1.18-2.21-2.09-2.61-3.73s.11-3.38,1.37-4a2.53,2.53,0,0,1,3.36,1c.63,1.14,1.29,2.27,1.85,3.44.16.33,0,.8,0,1.58.74-.44,1.35-.73,1.88-1.12,1.12-.82,2.25-1.64,3.29-2.56a5,5,0,0,1,5.39-1.11L290.48,78Z" transform="translate(-44.97 -26.37)"/><path d="M288.6,54.5c.36-.08.68-.26.89-.18a4.22,4.22,0,0,1,.92.69c-.26.22-.51.61-.78.62-1.51.07-2.07.48-1.19,2,.26.46-.33,1.39-.78,2-.31-2.66.09-5.4-1.83-7.14a9.6,9.6,0,0,0-1.83,1c-.9.78-2.06,1.52-2.46,2.54a10.25,10.25,0,0,1-3.2,4.9c-.26-.4-.69-.77-.72-1.17a5.15,5.15,0,0,0-2.56-4.35c-.69-.42-1.36-.87-2.21-1.41a4.35,4.35,0,0,0-.15.72l.83.65c-2.15,1.52-2.26,3.56-.37,6.32a3.48,3.48,0,0,1,.62,1.75c-2.23-2-3.94-4.27-3.57-7.46a3,3,0,0,1,3-2.75,41.63,41.63,0,0,1,5.2,1.14l-.36,2.37.66.26A15.15,15.15,0,0,1,280,55.69c1.93-1.72,3.31-4.22,6.31-4.42C288.71,51.11,289.58,52.24,288.6,54.5Z" transform="translate(-44.97 -26.37)"/><path d="M125.24,156.57a9.08,9.08,0,0,1,.42-2.78c1.13-2.24,2.46-4.37,3.72-6.54l.58.2-.91,2.29c0,.06-.07.12-.06.17.49,2.37-.89,4.21-1.78,6.18-.62,1.35-1.37,2.64-2.14,4.09,2,1.25-.56,2.8-.38,4.39a10.27,10.27,0,0,1-.31,2.6c-.2,1.24-.14,2.68-2.08,2.79l1.34.35-1.19,5.57c-1.3,0-2.2-1.38-1.94-3a92.56,92.56,0,0,1,1.6-9.28,54.15,54.15,0,0,1,3-7.14Z" transform="translate(-44.97 -26.37)"/><path d="M167.81,215.23c-3,.86-5.22-.44-7.22-2.42,1.53-1.17,1.53-1.17.94-2.45l-2.26,1.53-.58-4-.47-.11-.94,1.3a21.82,21.82,0,0,1-1.73-1.95c-.58-.82-1-1.78-1.56-2.6-.26-.37-.89-.85-1.2-.76-1.51.43-1.31-.52-1.25-1.32-.53-.19-1-.32-1.47-.53s-1-.57-1.52-.87c.28-1.55.31-1.56,1.92-.8l1.76-1a10.59,10.59,0,0,0,1.88,2.06c1.1.64,1.79,1.24,1,2.58-.15.26.07.73.15,1.4l1.46-2.28,1.3,1c-.28.74-.79,1.41-.66,1.9s.87,1,1.34,1.48l.42-.34-.88-1.75a4.26,4.26,0,0,1,3.64,3l2-1,.58.43c-2.22,2.3-2.66,4.5.19,6.58a2,2,0,0,1,3.08,1Z" transform="translate(-44.97 -26.37)"/><path d="M365.91,83.43c-.92,1.18.29,5.43,1.57,6.39L368,94c-1.22-1-3.28-.15-4.46-2.3l1.81.11a6.57,6.57,0,0,0-.25-2.16c-.27-.56-1-.87-1.48-1.35s-1.39-1.08-1.49-1.71c-.43-2.78-.7-5.58-.92-8.39-.12-1.51,0-3,0-4.77l2.11.62C364.7,77,362.8,80.8,365.91,83.43Z" transform="translate(-44.97 -26.37)"/><path d="M177.3,314l1.06-1.85c6.61,6.62,14.77,10.92,23.74,14.5a12,12,0,0,1-1.41,2.12c-.13.13-.93-.4-1.58-.7l1.32-1.59-.13-.26c-.43.22-1.08.32-1.26.67-.81,1.52-1.71,1.14-2.77.34-1.75-1.31-3.51-2.6-5.31-3.85-.26-.18-.73,0-1.1-.06-.53,0-1.05-.11-2-.21l1.37-1.45-2.49-1.8-.75-.31-2.64-.51-.22-.65c-.59,0-1.34.11-1.54-.15a9.53,9.53,0,0,1-1-2.14l.46-.41-1.77-.66-.22.29.86,1.11c-1.88.09-2.2-1.25-2.64-2.46Z" transform="translate(-44.97 -26.37)"/><path d="M167.76,215.29l1.1-1.21.34,1.65,1-.66c1.65,1.47,3.78,2.71,4.89,4.56,1,1.6,2.86,2.33,3.34,4.41.26,1.11,1.75,2,2.83,2.85,1.54,1.17.65,2.14-.2,3-1.08,1-2.7.64-3.77-.58a32.2,32.2,0,0,0-2.52-2.27,1.39,1.39,0,0,1-.46-.73c-.11-.79-.14-1.59-.23-2.83.53,1.31,2.55,1.11,1.91,3.06,1.3-.4,1.33-1.16.33-2.43-1.66-2.1-3.2-4.29-4.79-6.44-1.87.88-2.52.76-4.55-.87l.77-1.54Z" transform="translate(-44.97 -26.37)"/><path d="M80.2,198.13c.75,2.4.92,5.3,2.42,7.06s2,3.74,2.65,5.74c.44,1.39.65,2.85,1,4.28a.77.77,0,0,0,.14.33,10.72,10.72,0,0,1,2.54,6.15c0,.25.88.41.86.41l1.11,3.8,0,0L88.65,225l.78-1.52-.42.31c-.52-.72-1.09-1.41-1.54-2.17a3.09,3.09,0,0,1-.4-2c-1.05-1.78-2.22-3.5-3.11-5.36-.34-.72,0-1.74-.09-2.61,0-.36-.49-.69-.79-1s-.69-.39-.79-.67c-.5-1.38-.9-2.8-1.38-4.19-.39-1.12-.86-2.22-1.28-3.34-.58-1.54-.69-3,.62-4.29Z" transform="translate(-44.97 -26.37)"/><path d="M148.78,189.4l-2.3-1.75c1.18-1.73.45-2.41-1.24-3.78l1-1.94-1.46.07c-.38-2.54-.69-5.1-1.19-7.62-.14-.72-.72-1.78-1.28-1.92a2,2,0,0,1-1.43-2.51,1.66,1.66,0,0,1,2.11-1.53c1.64.27,1.85-.25,2.26,1.86C146.45,176.46,147.54,182.64,148.78,189.4Z" transform="translate(-44.97 -26.37)"/><path d="M283.54,329.1l.46.26c-1.4,3.13-1.23,6.78-3.53,9.67-1.25,1.57-1.82,3.7-2.69,5.57-.54,1.15-1,2.32-1.61,3.45-.73,1.44-1.62,2.8-2.27,4.28-.57,1.29-2.46,2.87-3.41,2.43-.45-.21-1-1.16-.92-1.36a59.25,59.25,0,0,1,4.87-7,41,41,0,0,0,6.64-11.18C281.92,333.21,282.7,331.18,283.54,329.1Z" transform="translate(-44.97 -26.37)"/><path d="M204.88,194.45c.34.32,1,.64,1.16,1.12a4.27,4.27,0,0,0,6.35,2.35,20.18,20.18,0,0,0,2.78-1.79,28.46,28.46,0,0,0,2.45-2.7c.38,2.19-1,3-2,4-.77.83-1.62,1.58-2.44,2.36-.09.08-.16.23-.26.26-1.71.42-3.43,1.19-5.12,1.13s-3-1.52-3.62-3.35c-.72-2.16-1.64-4.26-2.32-6.43-.18-.56.2-1.3.32-2l.91-.06Z" transform="translate(-44.97 -26.37)"/><path d="M234.33,223.85c-2.78-.49-4-2.44-4.78-4.73a1.65,1.65,0,0,1,.54-1.51c.92-.46,2.09-1.06,3-.84,1.81.46,3.28,0,4-1.88.26.32.69.65.63.82-.48,1.43,1.35,2,1.14,3.32.51,0,1.27.14,1.47-.12a31.73,31.73,0,0,0,2-3.21l2,.29-4.92,5.15c.68,1,.68,1-.41,1.79a34,34,0,0,0-4.21-3.22c-.73-.4-1.88,0-2.84,0a12.51,12.51,0,0,0,.8,2.49A9,9,0,0,0,234.33,223.85Z" transform="translate(-44.97 -26.37)"/><path d="M335.19,194.95c.54,3.42,1,6.31,1.47,9.19.38,2.22.86,4.41,1.26,6.63a15.49,15.49,0,0,1,.47,3.57c0,.75-.72,1.46-1.11,2.18l-.59-.07a4.38,4.38,0,0,1-.56-1.35c-.08-1.67.4-3.28-.85-4.93-.75-1-.46-2.76-.72-4.16s-.62-2.77-.94-4.15c-.07-.29-.24-.6-.18-.85C333.94,199.18,334.49,197.35,335.19,194.95Z" transform="translate(-44.97 -26.37)"/><path d="M510,195.43l-3,.43L508.4,198l-.65,1.81-1.32-.95-.56,2.88-.21-.19-2.17,3,.94.14c-.77,2-1.47,4.06-2.34,6-.17.38-1,.46-1.67.72l.83,1.27-2.22,2.7.32,1-.26.26-1.34-1.11a32,32,0,0,1,1.31-3.57c.81-1.6,2.19-3,2.6-4.69.45-1.85,1.55-3.28,2.2-5,.53-1.37,1.26-2.66,1.78-4a24.4,24.4,0,0,1,.56-2.4C506.75,194.78,508.42,194.53,510,195.43Z" transform="translate(-44.97 -26.37)"/><path d="M397.31,321.89c.23.57.51.94.42,1.1-.81,1.43-1.7,2.82-2.52,4.24-1.12,1.93-2.19,3.9-3.33,5.81-.25.42-.78.68-1.09,1.08-.67.88-1.31,1.78-1.91,2.71s-1.11,1.79-1.66,2.7c-.8,1.34-1.59,2.68-2.52,4.25l-1.52-1.23Z" transform="translate(-44.97 -26.37)"/><path d="M271.81,96.67l1.26,1.59a28.08,28.08,0,0,0-2.6,1.32,7.53,7.53,0,0,1-5.23,1.54,3.27,3.27,0,0,1-2.05-1.11c-.34-.49-.08-1.42,0-2.15,0-.25.41-.52.38-.73-.84-5.14,1.86-6.73,6-7.32-.71.37-1.42.72-2.12,1.11s-1.45.84-2.24,1.3c1.64,1.36.14,2.34-.12,3.47l.94.49-1.5,3.13,2-1C268.06,100,270.09,99,271.81,96.67Z" transform="translate(-44.97 -26.37)"/><path d="M276,84.28c-2.56,2.14-7.07,1.18-8.34-1.55a2.82,2.82,0,0,1,1.42-4c1.61-.78,3.25-1.49,5.33-2.43l-.26,2c-.54,0-1,0-1.5,0-2.11.08-2.69,1-1.67,2.9A5.16,5.16,0,0,0,276,84.28Z" transform="translate(-44.97 -26.37)"/><path d="M139.29,152.14l2.65-.13,1.19,8.38c-1.42-.14-1.69.38-1.28,1.46.86,2.25.85,2.26-1.15,2.3a28.14,28.14,0,0,1-.89-3.48c-.18-1.45-1-3.05.73-4.4l-2.26-.7C139.68,154.62,140.88,153.76,139.29,152.14Z" transform="translate(-44.97 -26.37)"/><path d="M141.59,195.76c-1.16,0-2.9.17-2.95,0-.5-2.27-2.91-2.06-4.1-3.35-.34-.37-.87-.56-1.24-.92a14.12,14.12,0,0,1-1.11-1.36c-1.18.82-1-.55-1.1-1.47l-1.6-.12.32-.32-2-2.17-2.1,1.25.89-2.24a4.19,4.19,0,0,1,4.17,1.69c1,1.21,2.87,1.31,3.38,3,0,.11.74,0,1.25,0l-.79,1.36,1.94-.41-1.29,1.65A7,7,0,0,1,141.59,195.76Z" transform="translate(-44.97 -26.37)"/><path d="M292,80.59c-1.89,1.13-2.78.88-3.38-1a30,30,0,0,1-6.35,3.5l-.28-.51,3.87-2.46a4.74,4.74,0,0,0-5.13,2.13,10.57,10.57,0,0,1-1.49,1.47l.12,1.36-2.81-1.18a15.88,15.88,0,0,1,14-5.24l1.48,2Z" transform="translate(-44.97 -26.37)"/><path d="M77.63,171c-.54-.59-1.11-.91-1.15-1.3a43,43,0,0,1-.47-6.25c0-1.4,1.22-2.82-.31-4.1.87-1.4-.29-2.68-.25-4a25.11,25.11,0,0,1,.95-4.36l6.1,3.69c-.59,1.49-.6,1.51-2,.46-.9-.7-1.73-1.49-2.64-2.17a1.08,1.08,0,0,0-1-.07,1.14,1.14,0,0,0-.34.93c.27,2.34.69,4.66.86,7,.09,1.2-.39,2.44-.35,3.66C77.14,166.52,77.41,168.5,77.63,171Z" transform="translate(-44.97 -26.37)"/><path d="M157.2,295a3.27,3.27,0,0,1-3.47-2.46c-.07-.22-.2-.54-.36-.58-2.43-.59-1.54-3.07-2.54-4.47,0-.07.14-.3.33-.7.61.52,1.17.94,1.67,1.43,1.18,1.14,2.41,2.24,3.49,3.48.69.79,1,1.88,1.72,2.67,1.22,1.39,2.6,2.64,4.24,4.28-1.83.06-2.8-.86-3.83-1.71a20,20,0,0,0-2-1.3Z" transform="translate(-44.97 -26.37)"/><path d="M331.81,184.14c1.72,1.5,2.65,5.83,1.79,7.79,1.53,1.2,1.42,2.84-.52,4.42-.38-1.93-.7-3.73-1.1-5.51-.51-2.3-1.12-4.57-1.58-6.87a9,9,0,0,1,.11-2.19C332.29,182,332.77,182.67,331.81,184.14Z" transform="translate(-44.97 -26.37)"/><path d="M143.42,277.67a31.43,31.43,0,0,1,2.8,1.7,22.1,22.1,0,0,1,2.22,2.1,1.07,1.07,0,0,1,.33.59c.16,2.07.9,2.85,3,3.32L149,286.46l-2.45-2c.16-.83,1.1-2-.85-2.35l.56,1.38c-1-.08-3.5-2.09-3.33-2.83.1-.42.85-.68,1.33-1l-.76-2Z" transform="translate(-44.97 -26.37)"/><path d="M254.57,334.52l-.11.15c-.48-.16-1.25-.18-1.41-.5-1.34-2.68-2.47-5.46-3.88-8.1-.55-1-1.09-1.82-.05-3.22l4,6.76-1.63.85C254.36,330.78,255.54,332,254.57,334.52Z" transform="translate(-44.97 -26.37)"/><path d="M292.1,80.65a4.71,4.71,0,0,1,.43-1.42c.09-.13.82,0,1.14.24,1.57,1.05,3.09,2.17,4.92,3.46h-2.1l1.22,2.42c-1.26,1-2.41,1.87-3.62,2.69-.09.06-.59-.47-.94-.76,2.44-1.48,2.52-2.41.61-4.36a10.87,10.87,0,0,1-.9-1.64,3.68,3.68,0,0,0-.82-.68Z" transform="translate(-44.97 -26.37)"/><path d="M340.39,226.07l-1.86,1.26-1.69-9.9,1.79-.69c.15.66.32,1.31.44,2C339.5,221.09,339.92,223.46,340.39,226.07Z" transform="translate(-44.97 -26.37)"/><path d="M281.73,148.6a9,9,0,0,1-2.24-.68,5.71,5.71,0,0,1-1.93-1.88,16.06,16.06,0,0,1-1.38-4.25c-.13-.76.38-1.63.66-2.63l1.91,1.57-.77.5Z" transform="translate(-44.97 -26.37)"/><path d="M347.88,183.5c-1.31,3.55.33,7,.43,10.37-.5.89-1.15-1.27-1.5.26-.25-.2-.69-.37-.71-.59-.36-3.15-.66-6.31-1-9.47,0-.09.13-.19.29-.4.8.34,1.74,1,2.47-.16Z" transform="translate(-44.97 -26.37)"/><path d="M427.73,266.3a2.06,2.06,0,0,1,.48,2.81c-.81,1.72-.58,3.91-1.11,5.81a58.85,58.85,0,0,1-2.31,5.85l.32,1.57-2.59-1.86,1.62-.71c.34-1,.63-1.73.87-2.51.37-1.19,1.31-2.08.71-3.72-.41-1.13.58-2.78,1-4.18.31-1,.7-2,1-3Z" transform="translate(-44.97 -26.37)"/><path d="M80.26,198.19c-.17-.71-.32-1.42-.51-2.12s-.38-1.22-.62-2l-1.25,1.1c-.29-1.59-.51-3-.8-4.3a13.72,13.72,0,0,0-.63-1.83c-.49-1.31,0-2,1.34-2.08,1,3.11,2.12,6.21,3.11,9.34.21.66,1,1.77-.7,1.81Z" transform="translate(-44.97 -26.37)"/><path d="M259.68,133.83a9.38,9.38,0,0,1,.49,2,5.93,5.93,0,0,1-.24,2.84c-1.36,2.57-1.48,3.82,0,5.82l-3.24-1.14c0-.07.22-.58.42-1.1.4-1,1.44-1.89.39-3.16-.17-.21.44-1.06.76-1.75C257.46,135.52,257.85,134.66,259.68,133.83Z" transform="translate(-44.97 -26.37)"/><path d="M518.24,115.28c-.14-4.05,1.62-7.21,2.43-10.31l-1.59-4.24.43-.25c.79.55,2,1,2.25,1.68.29,1-.22,2.18-.37,3.29-.09.72-.14,1.45-.21,2.17l.45.05-2.71,4.7,1.2.8Z" transform="translate(-44.97 -26.37)"/><path d="M488.12,195.2a8.91,8.91,0,0,1,.54,1c.36,1.07-1.08,5.12-1.88,5.85a20.66,20.66,0,0,0-1.7,2.18c-.52.63-1.11,1.19-1.78,1.91l-1.62-1.52,1.92-.23-.69-.64,3.25-2.46c-1.17-1.07-.7-1.83.18-2.77A16.42,16.42,0,0,0,488.12,195.2Z" transform="translate(-44.97 -26.37)"/><path d="M512.25,181.32l1.43,1.68c-.52,1.45-1,2.59-1.34,3.76s-.54,2.47-1,3.62c-.21.5-1,.75-1.51,1.12l-.28-.4,1.81-3.06-1.11-.26c.12-.27.45-.67.35-.87a3.2,3.2,0,0,1,.67-3.64c.21-.26,0-.82.17-1.15s.57-.52.87-.78Z" transform="translate(-44.97 -26.37)"/><path d="M379.58,360.41c-.77,1.39-1.23,3.17-2.38,4.09a60.72,60.72,0,0,0-6.69,6.82l-1.3-.69,0,0c2.29-2.3,4.6-4.58,6.87-6.9.63-.65,1-1.51,1.68-2.13a10.29,10.29,0,0,1,1.85-1.18Z" transform="translate(-44.97 -26.37)"/><path d="M90.89,225.89l1-.2-.68-2.23.82-.21a23.18,23.18,0,0,0,.61,3.24c.44,1.34.23,3,1.84,3.87.38.21,2.53.93.24,2.26l1.59.24-.62,2.65c-2.25-3.26-4.44-6-4.76-9.66Z" transform="translate(-44.97 -26.37)"/><path d="M356.1,132.23l-.56.43,1,4.38-2.57-1.59.91-9.78c1.27,1.84,2.51,3.07,1,4.89C355.65,130.81,356,131.52,356.1,132.23Z" transform="translate(-44.97 -26.37)"/><path d="M119.87,181.8c-.9-.34-2-.33-2.11-1.75,0-.33-.66-.65-1.05-.93s-1-.59-1.43-.87L113.07,177a4.31,4.31,0,0,0-.11-1.42c-.17-.47-.64-.83-.68-1.53l8.9,6.55-1.37,1.23Z" transform="translate(-44.97 -26.37)"/><path d="M512.29,181.33c-1.08-1.44.6-1.94,1-2.84a8.59,8.59,0,0,1,1.51-1.76l-.45-.54-1.74,1.42-.34-.3,2.45-3.48.53.3-.32,1.56.4.2,1.34-2.07-1.68-.6.81-1.81a2.27,2.27,0,0,1,1.21,2.7,11,11,0,0,1-.76,2.25c-.65,1.46-1.36,2.89-2.11,4.45l-.73-.57c-.41.36-.81.71-1.2,1.07Z" transform="translate(-44.97 -26.37)"/><path d="M486.43,152.61l-1.44-1L493.73,138c-.56,1.47.12,3.39-1.6,4.37-.31.18-.32.82-.57,1.19-.71,1.06,0,3.25-2.5,3-.37,0-1,1.26-1.3,2C487.24,149.82,486.88,151.2,486.43,152.61Z" transform="translate(-44.97 -26.37)"/><path d="M358.54,110.22a30.63,30.63,0,0,1,.17,3.31c-.07,1.4.42,3-1.07,4a.62.62,0,0,0-.16.51c.3,1.94-.32,3.73-.79,5.56a8.87,8.87,0,0,1-.55,2.1c-.22-.42-.66-.85-.63-1.26a32.47,32.47,0,0,1,.5-4.08c.56-3,1.18-6,1.79-9,.08-.38.23-.75.34-1.13Z" transform="translate(-44.97 -26.37)"/><path d="M163.82,300.49c1.7,1.19,3.87,1.7,4.81,4,.34.83,1.59,1.29,2.45,1.89,1,.73.6,1.26.2,1.55l-6-3.81c0-.43.2-1.45,0-1.57a6.9,6.9,0,0,0-2.33-.25l1-1.83Z" transform="translate(-44.97 -26.37)"/><path d="M194,289.29l-1.74-.15.29.45a12.37,12.37,0,0,1-2.82,1.67c-1.94.54-1.23-1.7-2.64-2.71l-.18,2.54-3-.61c1.68-2.55,2.19-2.66,5-1.28a1.17,1.17,0,0,0,1.07-.16C191.29,287.74,192.54,287.69,194,289.29Z" transform="translate(-44.97 -26.37)"/><path d="M77.64,181.56,77.53,180c-1.28.81-1.28.81-.29,2.09,1.25,1.61,1,2.71-.91,4,1.38-2.46-2-5.15.21-7.26v-6C77.52,173.41,78.32,178.44,77.64,181.56Z" transform="translate(-44.97 -26.37)"/><path d="M151.46,315.72c-.82.43-1.52,1.15-2-.59a4.35,4.35,0,0,0-2-2.21c-1.43-.81-1.51-3-3.66-3.18-.79-.08-1.43-1.69-2.29-2.81l.68-1.09Z" transform="translate(-44.97 -26.37)"/><path d="M342.68,265.15a5.57,5.57,0,0,0,.78.84c.2.15.75.13.76.21a12,12,0,0,0,.16,3.09c.42,1.18.63,2-.63,2.73-.47.27-.73.89-1.4,1.31,1-2.73-1.32-5.48.34-8.18Z" transform="translate(-44.97 -26.37)"/><path d="M141.29,151.43l-4-1.27.09-.38,2.08.21c-1.18-2.49,0-5.45-2.85-7.2,1.48-.11,3.27,1.42,3.84,3.39A40.74,40.74,0,0,1,141.29,151.43Z" transform="translate(-44.97 -26.37)"/><path d="M392.59,345.75c-1.27.41-4.85,5.7-4.72,6.49l-2.68,2.62c0-.6-.23-1.31,0-1.67,1.95-2.68,4-5.31,6-7.9.19-.24.88-.09,1.34-.12Z" transform="translate(-44.97 -26.37)"/><path d="M518.1,167.56a21.48,21.48,0,0,0,.37-2.58c0-.33-.38-.68-.58-1l-.8.64-.29-.1,2.48-5.2,2.41-.49-1.57,3.87-1.44-.6a9.06,9.06,0,0,1,.94,2.88,8.9,8.9,0,0,1-1.08,2.74Z" transform="translate(-44.97 -26.37)"/><path d="M365.55,363.25l-1.3,2.48c-.4-2-.48-3,1.11-3.9a39.51,39.51,0,0,0,4.58-3.46,2.7,2.7,0,0,1,.86-.24C369.79,361.29,367.17,363.73,365.55,363.25Z" transform="translate(-44.97 -26.37)"/><path d="M278.64,88.9,277,91.29h4.17l0,.68-4.78.43c-.09-2.44-1.19-4.89.35-7.23Z" transform="translate(-44.97 -26.37)"/><path d="M177.33,314c-.44,0-1.24,0-1.28-.16-.52-2.17-2.35-2.42-4-2.92-.27-.08-.47-.37-.75-.61l1.48-2.63,4.58,4.29c-.62.6-1.67,1.35,0,2.07Z" transform="translate(-44.97 -26.37)"/><path d="M268.84,119.5c-.92.21-1.77.4-2.61.58-.09,0-.24-.09-.3-.18-.75-1.08-1.48-2.17-2.07-3l3-1.91Z" transform="translate(-44.97 -26.37)"/><path d="M93.53,162.24c1.17.81,2.17,1.54,3.21,2.2s2,1.11,2.93,1.75c.32.22.45.71.67,1.08a9.9,9.9,0,0,1-1.17.64c-.23.09-.53,0-.78,0-1.61.41-2.35-.09-1.93-1.61s-.31-1.57-1.26-1.71C94,164.45,93.59,163.91,93.53,162.24Z" transform="translate(-44.97 -26.37)"/><path d="M503,123.92c-2.24,3.93-2.83,8.15-6,11.64-.16-.93-.46-1.51-.28-1.84,1.66-3,3.39-6,5.13-8.94C502,124.52,502.4,124.38,503,123.92Z" transform="translate(-44.97 -26.37)"/><path d="M370.36,165.94l1.65-1.27c-2-.38-2.93-1.19-2-3.25l2.58,3.16V170C369.88,169.82,371.59,167,370.36,165.94Z" transform="translate(-44.97 -26.37)"/><path d="M114.47,258.7l-4.91-6.14L110,252a10.65,10.65,0,0,1,1.48.93c1,.85,1.51,2.11,2.9,2.61C115.42,255.86,115.49,257.71,114.47,258.7Z" transform="translate(-44.97 -26.37)"/><path d="M287.67,172.37l-.06,1.36,1.68-.2-1.18,1.61h2.11l-.75.68,1.69,3-1,1.16c-1.15-1.84-2.34-3.52-3.24-5.34-.28-.57.24-1.53.39-2.31Z" transform="translate(-44.97 -26.37)"/><path d="M255.36,215.73l1,.28-.07.6a5.89,5.89,0,0,0-1.44-.14,7,7,0,0,0-1.43.51c-.19-1.17-.43-2.34-.56-3.52-.22-2,.08-2.24,2.58-2.07l-.91,1.85.33-.07Z" transform="translate(-44.97 -26.37)"/><path d="M340.09,233.61c-1.62-3.91-1.49-5.41.61-6.82a12.84,12.84,0,0,1,.74,3.44C341.37,231.23,340.69,232.2,340.09,233.61Z" transform="translate(-44.97 -26.37)"/><path d="M274.59,183l-1.5.89,2,3.3c-2.22-1.21-3-3.29-2.32-5.17a3,3,0,0,0,.12-1.53,20.55,20.55,0,0,1-.48-3.89C274.78,178.26,272.94,181.2,274.59,183Z" transform="translate(-44.97 -26.37)"/><path d="M397.94,337.09a27.35,27.35,0,0,1-1.25,2.6c-1,1.62-2.05,3.2-3.13,4.76-.12.17-.54.14-.82.21,0-.32-.25-.74-.12-1,1.23-2.05,2.51-4.07,3.81-6.08a4.89,4.89,0,0,1,.92-.84Z" transform="translate(-44.97 -26.37)"/><path d="M375.74,350.75l.93,1c-1.16,1.65-2.21,3.28-3.42,4.79a3.27,3.27,0,0,1-2,.84C371.6,354.44,374.39,353.28,375.74,350.75Z" transform="translate(-44.97 -26.37)"/><path d="M108.55,251.81c-.68-2.31-4.6-2.86-2.85-6.22l3.93,4.63Z" transform="translate(-44.97 -26.37)"/><path d="M352.63,210.58c-1.69-.27-2.89-1.62-2.34-3.27s-.22-2.8-.83-4.09a9.81,9.81,0,0,1-.35-1l.43-.27a10.49,10.49,0,0,1,1.74,2.88c.35,1.55,0,3.24,1.29,4.55.21.21,0,.82,0,1.25Z" transform="translate(-44.97 -26.37)"/><path d="M217.58,321.51c2.08,1.16,2.59,4.07,4.85,5v2.3c-.87,0-.69-.08-1.5-1.51-1-1.86-2.41-3.53-3.64-5.28Z" transform="translate(-44.97 -26.37)"/><path d="M276.25,135.29l.51,3.26-1.19.3-1.73.46a8.1,8.1,0,0,1-.56-2.4c0-.31,1-.56,1.56-.84l.9-.46Z" transform="translate(-44.97 -26.37)"/><path d="M133.31,292.88l1.46-.93v4.23l1.1-.69,1.51,3.06-2,.84Z" transform="translate(-44.97 -26.37)"/><path d="M273.12,129.61a8.33,8.33,0,0,1,1.36,2,3,3,0,0,1-1.87,4.14v-5.83Z" transform="translate(-44.97 -26.37)"/><path d="M287.15,109.53l-6,.33.28.9-1.41.12-.45-2.32h7.58Z" transform="translate(-44.97 -26.37)"/><path d="M355.86,226.17l-3.46,2.54-.24-.35,5.56-7c.25.81,1.3,1.32-.32,1.93C356.69,223.58,356.43,225,355.86,226.17Z" transform="translate(-44.97 -26.37)"/><path d="M360.58,101.46,362,96.18h.59l.6,3.63h-.35l.86,1.65Z" transform="translate(-44.97 -26.37)"/><path d="M258.36,120.58c.14-1,.24-2.11.45-3.14.07-.33.41-.6.62-.9.19.28.5.54.54.84.19,1.45.35,2.91.42,4.37,0,.3-.5.92-.63.88a2.33,2.33,0,0,1-1.25-.77c-.2-.29,0-.83,0-1.26Z" transform="translate(-44.97 -26.37)"/><path d="M379.31,349l-.92-1.14c.7-.81,1.4-1.6,2.08-2.41s1.31-1.6,2.19-2.68l.84,1.92-.48-.19c-.94,1.37-1.85,2.76-2.83,4.11-.16.22-.61.23-.92.33Z" transform="translate(-44.97 -26.37)"/><path d="M268.81,125.06l-2.21-3.89c.64-.22,1.7-.84,1.9-.63a7.17,7.17,0,0,1,1.78,2.93C270.4,123.88,269.25,124.61,268.81,125.06Z" transform="translate(-44.97 -26.37)"/><path d="M107.22,170.39l.36,2.2c1.48-.43,3.83.27,3.77,1.22,0,.65-.81,1.26-1.26,1.89l-.56-.42.82-1.3-1.8-.51-1.1,1.65-1.11-4.44Z" transform="translate(-44.97 -26.37)"/><path d="M161.07,324.07c-3.1-.22-4.41-2.69-6.7-4.4C156.2,319.66,160.66,322.73,161.07,324.07Z" transform="translate(-44.97 -26.37)"/><path d="M374.56,178.7c.09,1.69.13,3.39.28,5.08.09,1,.45,2,.51,3.07a7.7,7.7,0,0,1-.32,1.91c-.37-1.13-1.13-2.3-1-3.4C374.2,183.15,372.71,180.84,374.56,178.7Z" transform="translate(-44.97 -26.37)"/><path d="M268.6,126.75l2.27-1.85c-.19,1.84,1.59,4-1,5.12Z" transform="translate(-44.97 -26.37)"/><path d="M369.65,101.31l-2.35-.51c1.67-1.59,1.69-1.81.84-3.35l-2.22-.75.13-.48,3.28-.46c.1,2,.18,3.79.27,5.62Z" transform="translate(-44.97 -26.37)"/><path d="M207.32,308.87c4.65,1.87,5,2.16,4.85,4.33l1.37.59,0,.46c-.4,0-1,.12-1.17-.08a30.71,30.71,0,0,1-1.56-2.78l-.42.15.25,1.71Z" transform="translate(-44.97 -26.37)"/><path d="M353.59,143.67c1.28-1.25,1.52-4,.56-6.44.89,0,2.06,1.57,1.89,2.45s-.1,1.67-.22,2.5c-.09.6-.15,1.4-.54,1.7S354.17,143.77,353.59,143.67Z" transform="translate(-44.97 -26.37)"/><path d="M398.08,336.17c.54-2.74,2.12-5,3.76-7.18C402.41,330.17,400.16,334.81,398.08,336.17Z" transform="translate(-44.97 -26.37)"/><path d="M487.17,230.89a19,19,0,0,0-2.32,1.17c-1.2.81-2.29,1.78-3.48,2.6a1.53,1.53,0,0,1-1.42.06c1.67-1.37,3.3-2.81,5-4.08.5-.36,1.33-.26,2-.37Z" transform="translate(-44.97 -26.37)"/><path d="M378.76,204.16c-.26-.24-.66-.44-.76-.74-.27-.8-.41-1.63-.6-2.42L377,196.1l.68,0c-.14,2.79,2.32,5.16,1,8.14Z" transform="translate(-44.97 -26.37)"/><path d="M166,327.81l7.79,4.86-.33.59c-.63-.3-1.28-.58-1.9-.92a14.58,14.58,0,0,0-2.26-1.31,4.92,4.92,0,0,1-3.25-3.28Z" transform="translate(-44.97 -26.37)"/><path d="M354,162c1.6,1,1.92,2.47.93,4.74l1.31.27-.92,2.9a15.8,15.8,0,0,1-1.27-7.94Z" transform="translate(-44.97 -26.37)"/><path d="M143.46,277.63H142l.86,1.49-.37.42-3.22-3h1.78l.08-.4-2.88-.77,0,0c2-.84,4,0,5.18,2.27Z" transform="translate(-44.97 -26.37)"/><path d="M261.24,115.71l-2.65-2.12,2.69-1.73,1.45,2.67Z" transform="translate(-44.97 -26.37)"/><path d="M288.09,92.14l4.93,4c-1.43-.22-2.65-.32-3.82-.62C287.24,95,288.67,93.24,288.09,92.14Z" transform="translate(-44.97 -26.37)"/><path d="M439.48,69l2.07-5.47c.19.46.46.77.42,1-.18,1.23-.82,2.45.1,3.65l-2,1.37Z" transform="translate(-44.97 -26.37)"/><path d="M237.72,209.61c.56-.27,1.18-.85,1.67-.75a3.07,3.07,0,0,1,1.92,1.21,38.54,38.54,0,0,1,1.88,4.44l-1.75-.27c.15-3-1.54-5-3.78-4.67Z" transform="translate(-44.97 -26.37)"/><path d="M372.33,178.64l-.72-4.48.36-.36c.79,1.24,1.52,1.56,2.08-.06a24.22,24.22,0,0,1-.05,3.59c-.09.54-.71,1-1.09,1.49Z" transform="translate(-44.97 -26.37)"/><path d="M439.91,45.11c.63-1.34,1.07-2.38,1.6-3.37.16-.3.59-.45.89-.67.18.4.57.86.49,1.19a5.17,5.17,0,0,1-1,1.42l1,1-2.3,1.54Z" transform="translate(-44.97 -26.37)"/><path d="M264.37,114.76c-.48-1.37-1-2.74-1.41-4.12,0-.11.39-.35.6-.54a10.15,10.15,0,0,1,1.78,2.17,6.25,6.25,0,0,1,.06,2.35Z" transform="translate(-44.97 -26.37)"/><path d="M417.53,299.46l-3,6.32c-.14-.64-.37-1-.28-1.33a50.54,50.54,0,0,1,1.73-4.79C416.11,299.42,417,299.52,417.53,299.46Z" transform="translate(-44.97 -26.37)"/><path d="M379.63,360.46c.88-1.32,1-3.34,3.2-3.42l.4-2.24,1.88.67A6.69,6.69,0,0,1,384,357c-1.45,1.18-3,2.26-4.47,3.38Z" transform="translate(-44.97 -26.37)"/><path d="M421,144.11l-1.66,2.15-.44-.26,1.9-5.53,1,3.77Z" transform="translate(-44.97 -26.37)"/><path d="M181.64,338.1c-1.79.22-5.58-2.13-5.42-3.59l5.73,3Z" transform="translate(-44.97 -26.37)"/><path d="M475.07,238.78,469,241l.49-1.94,5.39-.52Z" transform="translate(-44.97 -26.37)"/><path d="M360.44,209.38c.55,1,1.59,2,1.51,3s-1.31,1.7-2.13,2.65l.34-5.3Z" transform="translate(-44.97 -26.37)"/><path d="M440.63,57.89l1.07-1.47c.07,0,.28,0,.28,0,.19,1.57.42,3.15.5,4.73,0,.33-.55.69-1.15,1.37Z" transform="translate(-44.97 -26.37)"/><path d="M181.32,288.4l-.47.81.2.28,1.88-1c-1.32.63,1.08,2.75-1,2.78a3.16,3.16,0,0,1-2-1.42c-.17-.23.64-1.16,1-1.77Z" transform="translate(-44.97 -26.37)"/><path d="M492.44,225.18c-1.22-1.65-.94-2.33,2.17-5.6l2,1.77C493.45,220.89,492.87,222.84,492.44,225.18Z" transform="translate(-44.97 -26.37)"/><path d="M358.23,220.73l-4.69-5.62C355.6,215.51,358.66,219.28,358.23,220.73Z" transform="translate(-44.97 -26.37)"/><path d="M393.71,252.82l1.49.58-1.74,3.76-2.77-3.37.2-.27,2.73,1.77c.06-1,.1-1.77.14-2.52Z" transform="translate(-44.97 -26.37)"/><path d="M241.75,233.59l-1.36-1.47,4.77-.86-1,2Z" transform="translate(-44.97 -26.37)"/><path d="M280.94,222.64l-1.11.11c.14-.84.31-1.54.36-2.25a2.35,2.35,0,0,0-.27-1.1,13,13,0,0,0-.8-1.29l1.81-.52Z" transform="translate(-44.97 -26.37)"/><path d="M102.44,242.22c-1.26.28-3.88-2-3.47-2.82.24-.49,1.07-.7,1.63-1l.31.4-.62,1.22a13.72,13.72,0,0,1,1.16,1A14.17,14.17,0,0,1,102.44,242.22Z" transform="translate(-44.97 -26.37)"/><path d="M268.1,155.53c.33.62.9,1.22.94,1.86a32.61,32.61,0,0,1-.2,4h-.57l-.7-5.55Z" transform="translate(-44.97 -26.37)"/><path d="M303.38,273.44c-.29-.18-.9-.34-1-.66a3.88,3.88,0,0,1,1.35-4.57Z" transform="translate(-44.97 -26.37)"/><path d="M410.94,314c-1.42,1.7-.75,4.82-4.2,5.44l3.74-5.78Z" transform="translate(-44.97 -26.37)"/><path d="M426.24,135.65c.25,1.16.25,1.16-2.54,2.79l-.26-3.11.61-.07.67,1.45Z" transform="translate(-44.97 -26.37)"/><path d="M286.78,60.27c-1.2,3-2.07,3.8-3.77,3.56C284.56,62.93,284.25,60.09,286.78,60.27Z" transform="translate(-44.97 -26.37)"/><path d="M439.6,51.18l1.32.85c.79-1.7.79-1.7,2.07-1.32l-.7.75a5.13,5.13,0,0,1,.53,1.34c0,.15-.69.58-.78.51C441.22,52.68,439.44,53.22,439.6,51.18Z" transform="translate(-44.97 -26.37)"/><path d="M442.84,48.15l-1.67-1.34,1.51-1.16.8,3-3.31,1.5C439.82,47.89,441.77,49.12,442.84,48.15Z" transform="translate(-44.97 -26.37)"/><path d="M403.08,197.38l-1.65-4.2,2.5-.14C401.75,194.45,405.36,196.19,403.08,197.38Z" transform="translate(-44.97 -26.37)"/><path d="M300.68,226.35l-.43-6.75c.55.15.76.2.76.21-.31,1.84-.41,3.59,1,5.13.19.2-.33,1-.52,1.6Z" transform="translate(-44.97 -26.37)"/><path d="M112.77,200.75c2.13-.34,3.06,1.28,4.57,2.52C114.6,204.15,114.39,201.27,112.77,200.75Z" transform="translate(-44.97 -26.37)"/><path d="M359.19,109.61l.3-4.08c1.94.55,1.86.5,1.05,1.87a8.79,8.79,0,0,0-.61,2.34Z" transform="translate(-44.97 -26.37)"/><path d="M294.26,94.86a12.66,12.66,0,0,1,1.45-2.21c.33-.33,1-.28,1.59-.41-.06.47,0,1.13-.22,1.36a22.21,22.21,0,0,1-2.54,1.71Z" transform="translate(-44.97 -26.37)"/><path d="M86.85,159l-3-1.31.16-.47c1.47.54,3.17-1.29,4.46.53Z" transform="translate(-44.97 -26.37)"/><path d="M102.64,191.21c2.24-.86,2.77-.67,3.69,1.25C104.63,193.64,103.9,191.92,102.64,191.21Z" transform="translate(-44.97 -26.37)"/><path d="M206.53,189.55l5.88,1.41C211.4,192,207.86,191.36,206.53,189.55Z" transform="translate(-44.97 -26.37)"/><path d="M131.34,285.85l2.73,2.73a9.52,9.52,0,0,1-1.86.6,28.44,28.44,0,0,1-1.38-3.15Z" transform="translate(-44.97 -26.37)"/><path d="M164.41,209.55l2.08,1.7-1.3,1.38C162.9,211.92,163.64,210.65,164.41,209.55Z" transform="translate(-44.97 -26.37)"/><path d="M257.72,221.09l-2.53,1.65-.69-2.61C255.94,218.5,256.3,220.57,257.72,221.09Z" transform="translate(-44.97 -26.37)"/><path d="M344,291.39c.1.33.18.93.31.94,1.12.09,1.05.85.88,1.55a6.79,6.79,0,0,1-.83,1.73c0,.06-.71-.11-.73-.23a8.57,8.57,0,0,1-.15-2.15,9.77,9.77,0,0,1,.52-1.83Z" transform="translate(-44.97 -26.37)"/><path d="M206.07,307c1.29-1.7.44-2.94-2.14-3.33l.05-.52a6.86,6.86,0,0,1,2.17.42c1.43.82,1.79,2.38,1.06,4.15Z" transform="translate(-44.97 -26.37)"/><path d="M389.46,247.9c-.37-.56-1.14-1.23-1-1.65.5-1.79-.41-3.25-.86-4.85,1,1.17,2.18,2.14,1.69,4-.18.66.29,1.51.47,2.27Z" transform="translate(-44.97 -26.37)"/><path d="M139.63,141.8c-2.29.26-2.9-.61-2.26-3.4Z" transform="translate(-44.97 -26.37)"/><path d="M393.15,266.24l1.38-2.57c.73,1.25,2.4,1.69,1.17,3.28C394.75,267.29,394.59,264.57,393.15,266.24Z" transform="translate(-44.97 -26.37)"/><path d="M126.91,184.21l-2.38,1.25-.17-1.45-1.59-.24.11-.76,4,.53Z" transform="translate(-44.97 -26.37)"/><path d="M97.26,233.32,98.71,238C96.13,236.63,96.47,237.1,97.26,233.32Z" transform="translate(-44.97 -26.37)"/><path d="M354.07,162c-.68-1.24-.07-2.55,1.69-3.59,1.33,2.13-.77,2.61-1.74,3.62Z" transform="translate(-44.97 -26.37)"/><path d="M414.79,306.53l-1.67,4c-.3-.75-.9-1.5-.73-2a12,12,0,0,1,1.7-2.5Z" transform="translate(-44.97 -26.37)"/><path d="M186,319.59l.75.31.64,1.67-.39.31-2.85-1.22V320Z" transform="translate(-44.97 -26.37)"/><path d="M278,207l-.86-3.65C279.61,206.5,279.61,206.5,278,207Z" transform="translate(-44.97 -26.37)"/><path d="M360.67,102.4l2.07,1-.47,1.52-2.51-.71Z" transform="translate(-44.97 -26.37)"/><path d="M352.63,210.58l-.06.06c1.3.24,2.42,2.07,2.23,4.1C353.58,213.39,352.41,212.39,352.63,210.58Z" transform="translate(-44.97 -26.37)"/><path d="M357,170.13c-.2,1.64,1.06,3.19-.9,4.12C356.55,173,354.83,171.41,357,170.13Z" transform="translate(-44.97 -26.37)"/><path d="M304.89,262.29l-1.34,1.26,1,2.42-.62.45c-.48-.58-1.3-1.12-1.38-1.76C302.37,263.5,303,262.6,304.89,262.29Z" transform="translate(-44.97 -26.37)"/><path d="M257.53,230.09c-.57,0-1.19.24-1.26-.84A14.88,14.88,0,0,0,255.2,226c1.75,1.19,2.61,2.33,2.3,4.12Z" transform="translate(-44.97 -26.37)"/><path d="M378.71,204.19c.38.21,1.09.42,1.08.62a29.69,29.69,0,0,1-.35,3.82c0,.08-.62.08-.67.09,0-1.58,0-3.08,0-4.57Z" transform="translate(-44.97 -26.37)"/><path d="M404.89,198.29c0,1.75,2.21,3.28.09,5.47.6-1.57.36-2.6-.78-3.49-.3-.23.09-1.36.17-2.08Z" transform="translate(-44.97 -26.37)"/><path d="M140.76,304.33l-3-2.83c.14-.07.71-.56.93-.44A3.64,3.64,0,0,1,140.76,304.33Z" transform="translate(-44.97 -26.37)"/><path d="M88,159.41l1.4,1.2-.32-2.2,2.47,4-.16.27-3.7-2.86Z" transform="translate(-44.97 -26.37)"/><path d="M198.16,343.15h-4C194.82,341.87,196.34,341.94,198.16,343.15Z" transform="translate(-44.97 -26.37)"/><path d="M522.85,79.82l-.57,3.89L520,79.59C521.48,80.88,521.48,80.88,522.85,79.82Z" transform="translate(-44.97 -26.37)"/><path d="M121.51,262.87c-2.49.52-3-1.61-4.27-2.5l.3-.46Z" transform="translate(-44.97 -26.37)"/><path d="M109.92,195.44l1.82,2.2c-.68.21-1.36.45-2.06.61a.94.94,0,0,1-.79-.15c-.12-.16,0-.55.1-.8C109.21,196.77,109.5,196.26,109.92,195.44Z" transform="translate(-44.97 -26.37)"/><path d="M223.72,198.21l1.6-4.26.52-.59c.11.39.4.84.3,1.17-.45,1.45-.64,3.12-2.48,3.64Z" transform="translate(-44.97 -26.37)"/><path d="M170,221.13l2.29-.85c.21.82,1.3,1.7-.22,2.47Z" transform="translate(-44.97 -26.37)"/><path d="M369.16,161.08c.65-1.48-1.47-2.5.3-3.64l1.52,2.3Z" transform="translate(-44.97 -26.37)"/><path d="M138.28,275.36l-3.38-.78,1.7-2.28v2.22l2-.73-.38,1.61Z" transform="translate(-44.97 -26.37)"/><path d="M420.67,59.19l-1.55-2.76L421,54.66l.35.41c-1.77,1.48-1.77,1.48-.19,3.51Z" transform="translate(-44.97 -26.37)"/><path d="M347.33,196.92l2,1.7-.82,1.86-1.67-3.09Z" transform="translate(-44.97 -26.37)"/><path d="M440,29l1.39-2.12.45.61a10.87,10.87,0,0,0,.3,1.72,4,4,0,0,1,.47,1.78Z" transform="translate(-44.97 -26.37)"/><path d="M257.5,230.11c.89,1.92.37,3.44-1.23,3.79l.14-2,1.11-1.76Z" transform="translate(-44.97 -26.37)"/><path d="M103.05,170.41l-2.68-.42,1-2.73Z" transform="translate(-44.97 -26.37)"/><path d="M119.82,181.84l3.53-.49c-.41,1.72-1.89,1.39-3,1.52-.11,0-.29-.7-.44-1.07Z" transform="translate(-44.97 -26.37)"/><path d="M387.26,238.1l-1.59-4.38.45-.3a6.56,6.56,0,0,1,1.14,1.5c.2.51-.18,1.47.1,1.66C388.12,237.11,388.62,237.39,387.26,238.1Z" transform="translate(-44.97 -26.37)"/><path d="M280.69,227.51l.91-3.36c1,1,.91,2.33-.21,3.53Z" transform="translate(-44.97 -26.37)"/><path d="M431,230.29l.4,5.83-.52,0-.43-5.8Z" transform="translate(-44.97 -26.37)"/><path d="M286,160.91l-.61,1.66-2.77-1-.1-.4Z" transform="translate(-44.97 -26.37)"/><path d="M302.63,249.8l2.35,1.89-2,1.45Z" transform="translate(-44.97 -26.37)"/><path d="M357,179.81l.87,3.58C355.64,182.42,355.51,181.82,357,179.81Z" transform="translate(-44.97 -26.37)"/><path d="M272.69,170.86c-1.38-1,0-3-2.45-2.51l.35-.68a7.12,7.12,0,0,1,1.49-.13A30.82,30.82,0,0,1,272.69,170.86Z" transform="translate(-44.97 -26.37)"/><path d="M183.11,339.09c.67-.54,3,0,3.14.73a.69.69,0,0,1-.25.6,1,1,0,0,1-.82.05C184.47,340.05,183.81,339.56,183.11,339.09Z" transform="translate(-44.97 -26.37)"/><path d="M199.46,343.84l3.59-.36C202.07,345.56,200.7,344.06,199.46,343.84Z" transform="translate(-44.97 -26.37)"/><path d="M379.26,348.91l-1.33,2.67-2.06-1.52,3.43-1.1Z" transform="translate(-44.97 -26.37)"/><path d="M388.6,125.21l-1.54-1.89,2.4-1.76Z" transform="translate(-44.97 -26.37)"/><path d="M414.54,150.84l2.66-1.34,1,1.41-3.5.38Z" transform="translate(-44.97 -26.37)"/><path d="M283.74,156.56c0,1.15,2,1.75.49,3.81l-1.14-3.61Z" transform="translate(-44.97 -26.37)"/><path d="M163.87,300.44l-2.61,1-.85-1.34c1.14.65,2.53-1.51,3.41.35Z" transform="translate(-44.97 -26.37)"/><path d="M132.87,219.55l-1.18,1.14L130,218.43l.47-.4c.64.43.74,2.06,2.31.47Z" transform="translate(-44.97 -26.37)"/><path d="M442,32.06l-.34,3.29c-1.38-.71-1.37-1.68-.12-3.41Z" transform="translate(-44.97 -26.37)"/><path d="M431.19,121.66l-1.08,2.93C428.86,122.37,429.05,121.84,431.19,121.66Z" transform="translate(-44.97 -26.37)"/><path d="M420.93,287.72c-1.2,3.38-1.2,3.38-1.72,3.51a11.21,11.21,0,0,1,.53-2.15A6.05,6.05,0,0,1,420.93,287.72Z" transform="translate(-44.97 -26.37)"/><path d="M133.7,143.82,131.93,145l-.11-2.07,1.88.12Z" transform="translate(-44.97 -26.37)"/><path d="M260.85,127.07a2,2,0,0,1-.26-3.47Z" transform="translate(-44.97 -26.37)"/><path d="M271.38,174.71c-.32-.91-1.16-2.08,1-1.79.1,0,.27-.49.41-.76l.56.3L272,175Z" transform="translate(-44.97 -26.37)"/><path d="M270,164.58l-1.54-2,2.84-.7Z" transform="translate(-44.97 -26.37)"/><path d="M280,211l-1,2.85C277.86,213.2,278,212.2,280,211Z" transform="translate(-44.97 -26.37)"/><path d="M300.93,228.25l1.35-.26v3.7l-.47.06Z" transform="translate(-44.97 -26.37)"/><path d="M286.81,165.14l.82,2.73c-1-.59-2.51-.91-1.55-2.48Z" transform="translate(-44.97 -26.37)"/><path d="M130.69,147.82l-.66-2.89c.88.44,1.69.66,1.68.87a9.36,9.36,0,0,1-.5,2.13Z" transform="translate(-44.97 -26.37)"/><path d="M259.13,295l-1.75,3.31-.56-.37c.46-1.2.71-2.57,2.35-2.9Z" transform="translate(-44.97 -26.37)"/><path d="M496.92,216.08l2,1.54-1.66.81-.89-2.11Z" transform="translate(-44.97 -26.37)"/><path d="M215.85,316l-1.56,1.51-.8-.87,1.75-1.34Z" transform="translate(-44.97 -26.37)"/><path d="M245.32,230.52l-2.66-3.08C244.54,227.37,245.63,228.52,245.32,230.52Z" transform="translate(-44.97 -26.37)"/><path d="M166.1,327.75l-2,.63c2-2.3-1.44-1.73-.91-3.69l2.87,3.12Z" transform="translate(-44.97 -26.37)"/><path d="M298.13,209c-.54-.94-1-1.65-1.36-2.41-.12-.25,0-.62.05-.93.29.12.75.18.82.38C298,206.91,299,207.73,298.13,209Z" transform="translate(-44.97 -26.37)"/><path d="M419.75,26.88l-3.63,3.3-.33-.41,3.54-3.4Z" transform="translate(-44.97 -26.37)"/><path d="M375.46,189.42c1.65-.76,1.74-.64,1.57,2.38Z" transform="translate(-44.97 -26.37)"/><path d="M405.89,206.07v-1.93a22.1,22.1,0,0,1,1.93,1.53c.16.16,0,.61,0,.93a6.71,6.71,0,0,0-.75-.28C406.7,206.21,406.29,206.15,405.89,206.07Z" transform="translate(-44.97 -26.37)"/><path d="M143.8,198.86c.24-2.89.69-3.29,2.17-2.33Z" transform="translate(-44.97 -26.37)"/><path d="M129.62,269.2c-.73.3-1.26.73-1.56.61a7.65,7.65,0,0,1-1.63-1.25l.36-.48Z" transform="translate(-44.97 -26.37)"/><path d="M237.67,209.56V214c-1.14-1.82-1-3.58.05-4.43Z" transform="translate(-44.97 -26.37)"/><path d="M406.76,209c1.82.65,2.15,1.9,1.18,3.36Z" transform="translate(-44.97 -26.37)"/><path d="M411.45,251l-1,3.76c-.12-1.36-.64-2.8.42-3.89Z" transform="translate(-44.97 -26.37)"/><path d="M292,187.55l1-3.25C293.27,185.55,294.08,186.94,292,187.55Z" transform="translate(-44.97 -26.37)"/><path d="M357.58,176.82l-1.47,2.48-.84-.57,1.63-2.38Z" transform="translate(-44.97 -26.37)"/><path d="M362.93,92.72c-.61,1.37,0,2,1.51,2.16l-.52.66c-.62-.23-1.49-.29-1.77-.73s-.07-1.33-.07-2Z" transform="translate(-44.97 -26.37)"/><path d="M122.66,266.35V263.1C124.07,264.07,124.17,265.24,122.66,266.35Z" transform="translate(-44.97 -26.37)"/><path class="cls-1" d="M382.39,227.95a14.14,14.14,0,0,0-3.1.85,6.87,6.87,0,0,0-2.3,2.07c-.76,1.07-1.07,2.5-1.92,3.45-1.39,1.54-1.06,3.22-.82,4.91.27,1.89-.47,2.59-2.32,2-.52-.16-1-.27-1.11-.29-.61-1.11-1.09-1.85-1.43-2.65a3.68,3.68,0,0,1-.37-1.79,15.75,15.75,0,0,1,.81-2.61,12.18,12.18,0,0,0,1.65.3,2.47,2.47,0,0,0,.89-.32c-.21-.31-.49-.9-.6-.87a13.38,13.38,0,0,0-3.16,1.1c-.57.32-.81,1.18-1.3,1.71a8.21,8.21,0,0,1-1.33,1c-.14-.78-1.62-.24-1.42-1.61.09-.64-1-1.36-1.24-2.14-.51-2-.84-4.31,1.8-5.91l2,1.73c.22.19.47.56.68.54,2.23-.23,4.59.13,6.61-1.23a1.19,1.19,0,0,0,.37-.61c0-.14,0-.33-.1-.59a18.74,18.74,0,0,1-1.91,1.09,2.6,2.6,0,0,1-3.64-2.56c.09-.6.91-1.23,1.54-1.58a25.29,25.29,0,0,1,4-1.83,14.21,14.21,0,0,1,3.14-.6,27.76,27.76,0,0,1,4.16-.27c1,0,1.42.55,1.12,1.77A37.46,37.46,0,0,0,382.39,227.95Z" transform="translate(-44.97 -26.37)"/><path class="cls-1" d="M351.47,244.75,347.63,247l2.43,3.31-1.67,1.35c.34,1.16-.7,4.42-1.57,4.86-1.36.68-4.71.27-5.62-.68-1.46-1.52-.67-4.52,1.77-5.64,1.48-.68,1.52-1.5,1.47-2.85a8.15,8.15,0,0,1,.64-4.21c.87-1.52,2.67-.65,4-.38C349.86,243,350.49,243.92,351.47,244.75Z" transform="translate(-44.97 -26.37)"/><path class="cls-1" d="M377.15,220.53l1.08-1.32a7.86,7.86,0,0,0-9.14-.19,15.22,15.22,0,0,1-1.75,1c-.29-.9-1-1.91-.8-2.69a15.83,15.83,0,0,1,2-4.3,2.11,2.11,0,0,1,3.29-.76,7.56,7.56,0,0,0,2.34,1.06c1.13.27,2.33.81,3.39-.45a2,2,0,0,1,1.82.12c.66,1.51,1.52,3.17,1.42,4.71-.07,1-1.65,1.95-2.59,2.88C378.08,220.73,377.74,220.59,377.15,220.53Z" transform="translate(-44.97 -26.37)"/><path class="cls-1" d="M380.65,241.62c2.79,1.75,2.78,4.85,0,6.94a60.94,60.94,0,0,1-5.76,3.53c-.12.07-.35,0-1-.14C375.46,248,378,244.85,380.65,241.62Z" transform="translate(-44.97 -26.37)"/><path class="cls-1" d="M375.93,235.23a31.54,31.54,0,0,1,2.81-3.8c.69-.72,2.42.73,2.22,2a22.34,22.34,0,0,1-1.18,4.89c-.26.64-1.41,1-2.23,1.24-.2.05-.78-1-1-1.64A19.64,19.64,0,0,1,375.93,235.23Z" transform="translate(-44.97 -26.37)"/><path class="cls-1" d="M372,258c-.4-.7-1.06-1.42-.91-1.66.59-1,.63-2.77,2.62-2.23Z" transform="translate(-44.97 -26.37)"/><path class="cls-1" d="M345.75,259.25c1.15-1.75,2.35-1.39,3.43-1l1.36-1.79c-.05,2.4-.86,3-2.53,2.6A8,8,0,0,0,345.75,259.25Z" transform="translate(-44.97 -26.37)"/><path class="cls-1" d="M258.2,256.64c-2.59.69-3.34.19-3.84-2.15-.43-2-.35-3.89,1.18-5.45.27-.27.74-.66,1-.57a1.41,1.41,0,0,1,.78,1c.22,1.72.31,3.45.49,5.17C257.85,255.24,258,255.88,258.2,256.64Z" transform="translate(-44.97 -26.37)"/><path class="cls-1" d="M252.6,275.25a18.42,18.42,0,0,1-2.79,2.88c-.39.27-1.45-.44-2.2-.71-.05,0-.09-.08-.13-.13-.92-1-2.59-1.52-2.18-3.25.22-.92,3.23-1.39,4.67-.9C252.18,273.91,252.25,274,252.6,275.25Z" transform="translate(-44.97 -26.37)"/><path class="cls-1" d="M288.07,104.53c1.11,1.4,1.89,2.48,2.76,3.48,2.92,3.37,6,6.64,8.76,10.09,1.86,2.29,3.37,4.85,5.12,7.23.33.45,1.05.6,1.67.93l-.28.34c.71,1.16,1.29,2.17,1.94,3.12s1.24,1.57,1.83,2.38c.25.34.3.85.58,1.15a15.46,15.46,0,0,1,3.92,8.15c-.85-1.21-1.74-2.4-2.56-3.63-2.09-3.17-3.83-6.62-6.29-9.46-2.65-3.06-4.93-6.33-7.28-9.59-1.82-2.51-4.2-4.61-6.18-7-1.55-1.87-2.9-3.91-4.27-5.92C287.65,105.57,288,105,288.07,104.53Z" transform="translate(-44.97 -26.37)"/><path class="cls-1" d="M320.65,149.62l-1.93,1.11-4.37-8.62c2.16-.27,2,1.05,2.38,1.9.78,1.67,1.6,3.32,2.51,4.92C319.43,149.27,320.06,149.35,320.65,149.62Z" transform="translate(-44.97 -26.37)"/><path class="cls-1" d="M252.43,71.69c.27-.9,0-1.12-.87-.75l-1.08.5a3.79,3.79,0,0,1-.52-1.31c0-1.77,1.67-2.32,3.33-2.31,1.82,0,3.71,1.31,5.65-.13.47-.35,1.9.58,3,1a3.1,3.1,0,0,1-3.55,1.66c-1.34-.19-2.83.56-4.25.9l-1.77.44Z" transform="translate(-44.97 -26.37)"/><path class="cls-1" d="M264.68,291.53c2.44-.21.63-1.17,0-2.08l2-.91.51,1.38c1.65-1,3.25-.28,3.37,1.88a11.75,11.75,0,0,1-1,4.91A2.7,2.7,0,0,1,266.2,298c-1.28-.32-1.56-1.4-1.52-2.6S264.68,292.85,264.68,291.53Z" transform="translate(-44.97 -26.37)"/><rect class="cls-1" x="0.03" y="289.63" width="550" height="80"/><text class="cls-2" transform="translate(0 358.09)"><tspan xml:space="preserve">E  appa</tspan><tspan class="cls-3" x="405.44" y="0">r</tspan><tspan x="460.49" y="0">el</tspan></text><circle cx="105.03" cy="327.63" r="14"/></svg>